<svg width="444" height="49" viewBox="0 0 444 49" fill="none" xmlns="http://www.w3.org/2000/svg">
<g clip-path="url(#clip0)">
<path d="M76.8057 25.322V24.4843C78.6949 24.2472 78.9648 24.0101 78.5679 22.9036C78.171 21.7972 77.5836 20.1217 76.9803 18.304H70.6303C70.154 19.6475 69.6936 20.912 69.3126 22.1607C68.6458 24.0417 68.9157 24.342 71.17 24.5475V25.3853H64.5818V24.4843C66.4709 24.2156 66.8837 24.0417 67.9315 21.402L74.1069 5.70621L75.0436 5.4375C76.9327 10.5904 78.8695 16.2649 80.8539 21.4652C81.8064 24.0417 82.2033 24.3104 84.156 24.4843V25.322H76.8057ZM73.8688 9.32589C72.8528 11.9023 71.9003 14.4946 70.9319 16.9604H76.5041L73.8688 9.32589Z" fill="#8F8F8F"/>
<path d="M87.5533 25.3219V24.4841C89.8075 24.3103 90.0774 24.1206 90.0774 21.4967V9.59446C90.0774 7.08124 89.8075 6.90737 87.585 6.71769V5.89575H94.7447V6.73349C92.7921 6.90737 92.5222 7.0022 92.5222 9.57866V21.7971C92.5222 24.1048 92.6651 24.2154 94.3479 24.2154H97.5229C99.2374 24.2154 99.3486 24.089 99.3486 21.7971V9.56285C99.3486 7.08124 99.1104 6.90737 97.1578 6.71769V5.89575H104.079V6.73349C101.952 6.90737 101.889 7.09704 101.889 9.57866V21.7971C101.889 24.1048 102.031 24.2154 103.714 24.2154H106.889C108.572 24.2154 108.715 24.0732 108.715 21.7971V9.56285C108.715 7.01801 108.477 6.90737 106.286 6.71769V5.89575H113.716V6.73349C111.446 6.90737 111.255 7.06543 111.255 9.57866V21.6074C111.255 24.1522 111.493 24.3261 113.986 24.5158V25.3535L87.5533 25.3219Z" fill="#8F8F8F"/>
<path d="M129.67 25.3219V24.4841C131.972 24.3103 132.242 24.1522 132.242 21.5757V13.7832C132.242 12.8032 132.242 11.0961 132.385 8.2193H132.258L122.733 23.8677C122.528 24.2105 122.433 24.6078 122.463 25.0057V25.3377H117.303V24.4841C119.574 24.3103 119.828 24.089 119.828 21.3228V9.4522C119.828 7.09704 119.59 6.90736 117.303 6.73349V5.89575H124.908V6.73349C122.653 6.90736 122.368 7.09704 122.368 9.42059V16.7074C122.368 18.0825 122.368 19.6315 122.241 22.6032L131.655 7.17607C131.863 6.89066 131.979 6.54886 131.988 6.19607V5.89575H137.354V6.73349C135.084 6.90736 134.814 7.16027 134.814 9.81575V21.5915C134.814 24.168 135.084 24.3103 137.354 24.4999V25.3377L129.67 25.3219Z" fill="#8F8F8F"/>
<path d="M151.372 25.3219V24.4841C153.229 24.2787 153.436 24.0099 152.864 23.0141C152.118 21.7812 150.768 19.5525 148.879 16.6916C147.435 18.9045 146.212 20.9751 145.26 22.7296C144.545 24.0099 144.688 24.3103 146.704 24.5474V25.3851H139.83V24.4841C140.509 24.4928 141.179 24.3428 141.789 24.0463C142.398 23.7498 142.929 23.3151 143.339 22.777C144.053 21.797 145.546 19.7106 148.213 15.6325C146.625 13.1193 145.244 10.8906 144.196 9.30995C142.942 7.36575 142.513 7.03382 140.386 6.79672V5.89575H147.72V6.73349C145.927 6.93898 145.863 7.20769 146.308 7.9822C147.292 9.6893 148.435 11.428 149.752 13.4196C151.007 11.4754 151.912 10.037 152.689 8.58285C153.467 7.12865 153.293 7.0022 151.277 6.73349V5.89575H158.135V6.73349C157.301 6.70651 156.475 6.90729 155.748 7.31408C155.02 7.72088 154.418 8.31817 154.007 9.04124C153.372 9.91059 152.42 11.3174 150.356 14.3996C151.943 16.9761 153.658 19.5683 155.118 21.7496C156.579 23.9309 157.182 24.2945 159.262 24.4999V25.3377L151.372 25.3219Z" fill="#8F8F8F"/>
<path d="M178.169 25.3219V24.4841C180.598 24.247 180.709 24.089 180.693 20.9277L180.598 8.7251H180.471L173.168 25.1164H172.533L165.866 9.15188L165.421 17.6715C165.294 20.1215 165.294 21.4335 165.326 22.6348C165.326 24.0732 166.104 24.2154 168.088 24.4841V25.3219H161.103V24.4841C162.834 24.2786 163.437 23.9467 163.643 22.698C163.85 21.4493 163.977 20.3428 164.215 17.229L164.596 11.0012C164.866 7.11285 164.723 6.9864 161.992 6.71769V5.89575H166.914L173.74 20.8486L180.63 5.89575H185.726V6.73349C183.09 6.97059 182.884 7.03382 182.963 10.1161L183.265 20.9435C183.36 24.1048 183.44 24.2628 186.059 24.4999V25.3377L178.169 25.3219Z" fill="#8F8F8F"/>
<path d="M201.68 25.3219V24.4841C203.982 24.3103 204.252 24.1522 204.252 21.5757V13.7832C204.252 12.8032 204.252 11.0961 204.395 8.2193H204.284L194.759 23.8677C194.554 24.2105 194.459 24.6078 194.489 25.0057V25.3377H189.25V24.4841C191.52 24.3103 191.774 24.089 191.774 21.3228V9.4522C191.774 7.09704 191.536 6.90736 189.25 6.73349V5.89575H196.807V6.73349C194.552 6.90736 194.267 7.09704 194.267 9.42059V16.7074C194.267 18.0825 194.267 19.6315 194.14 22.6032L203.554 7.17607C203.762 6.89066 203.878 6.54886 203.887 6.19607V5.89575H209.253V6.73349C206.983 6.90736 206.713 7.16027 206.713 9.81575V21.5915C206.713 24.168 206.983 24.3103 209.253 24.4999V25.3377L201.68 25.3219Z" fill="#8F8F8F"/>
<path d="M233.415 6.73349C230.954 6.93898 230.716 7.09704 230.716 9.57865V21.6548C230.716 24.168 230.954 24.3103 233.383 24.4999V25.3377H225.35V24.4841C227.89 24.3103 228.16 24.1522 228.16 21.639V15.6641H217.952V21.639C217.952 24.1206 218.191 24.2944 220.651 24.4841V25.3219H212.714V24.4841C215.111 24.3103 215.349 24.1522 215.349 21.639V9.56285C215.349 7.04962 215.111 6.93898 212.65 6.71769V5.89575H220.413V6.73349C218.143 6.93898 217.889 7.09704 217.889 9.57865V14.4154H228.097V9.56285C228.097 7.08123 227.859 6.93898 225.525 6.71769V5.89575H233.351L233.415 6.73349Z" fill="#8F8F8F"/>
<path d="M289.407 25.3219V24.4841C291.804 24.3103 292.042 24.1838 292.042 21.5599V8.91478C292.042 7.17607 291.899 6.93898 290.248 6.93898H284.581C282.898 6.93898 282.723 7.17607 282.723 9.05704V21.5599C282.723 24.1364 282.993 24.3103 285.359 24.4841V25.3219H277.564V24.4841C279.929 24.3103 280.168 24.1522 280.168 21.5599V9.65769C280.168 7.03382 279.929 6.90736 277.596 6.73349V5.89575H297.186V6.73349C294.852 6.90736 294.582 7.06543 294.582 9.65769V21.5599C294.582 24.1996 294.852 24.3103 297.218 24.4841V25.3219H289.407Z" fill="#8F8F8F"/>
<path d="M312.235 25.322V24.4843C314.125 24.2472 314.394 24.0101 313.998 22.9036C313.601 21.7972 313.013 20.1217 312.41 18.304H306.06C305.584 19.6475 305.123 20.912 304.742 22.1607C304.091 24.0417 304.361 24.342 306.6 24.5475V25.3853H300.091V24.4843C301.98 24.2156 302.393 24.0417 303.441 21.402L309.648 5.70621L310.584 5.4375C312.442 10.5746 314.458 16.2649 316.363 21.4652C317.315 24.0417 317.712 24.3104 319.665 24.4843V25.322H312.235ZM309.346 9.32589C308.394 11.9023 307.425 14.4946 306.536 16.9446H312.045L309.346 9.32589Z" fill="#8F8F8F"/>
<path d="M330.556 5.8959C332.324 5.7653 334.088 6.20298 335.588 7.14461C336.234 7.63697 336.749 8.27866 337.089 9.01407C337.429 9.74948 337.584 10.5564 337.541 11.3649C337.543 12.9382 336.938 14.452 335.85 15.5935C334.763 16.735 333.277 17.4167 331.699 17.4978C331.249 17.5279 330.798 17.5279 330.349 17.4978L328.111 16.9288V21.6707C328.111 24.2156 328.381 24.3578 331.079 24.5475V25.3853H322.951V24.4843C325.348 24.3104 325.587 24.0733 325.587 21.5759V9.62622C325.587 7.00235 325.348 6.8759 323.126 6.71784V5.8959H330.556ZM328.111 15.933C328.814 16.1795 329.556 16.3025 330.302 16.2965C332.254 16.2965 334.651 15.2533 334.651 11.444C334.714 10.8328 334.641 10.2153 334.437 9.63544C334.233 9.05557 333.903 8.52744 333.472 8.08851C333.04 7.64958 332.516 7.31058 331.938 7.09556C331.36 6.88054 330.742 6.79476 330.127 6.84429C329.542 6.78606 328.953 6.91329 328.444 7.20784C328.206 7.41332 328.111 7.77687 328.111 8.61461V15.933Z" fill="#8F8F8F"/>
<path d="M357.401 10.5272C357.26 9.58864 356.937 8.68652 356.448 7.87172C355.972 7.16043 355.464 6.93914 353.273 6.93914H351.146V21.655C351.146 24.0101 351.384 24.3104 354.226 24.5001V25.3379H345.573V24.4843C348.304 24.3104 348.542 24.0101 348.542 21.6392V6.93914H346.685C344.192 6.93914 343.605 7.17624 343.208 7.87172C342.759 8.70468 342.438 9.59974 342.256 10.5272H341.382C341.525 8.72527 341.684 6.78108 341.748 5.13721H342.398C342.811 5.81688 343.208 5.88011 343.986 5.88011H355.829C356.138 5.92529 356.453 5.87892 356.735 5.7468C357.017 5.61467 357.254 5.40265 357.416 5.13721H358.051C358.051 6.51237 358.194 8.69366 358.353 10.4324L357.401 10.5272Z" fill="#8F8F8F"/>
<path d="M381.912 6.73349C379.451 6.93898 379.213 7.09704 379.213 9.57865V21.6548C379.213 24.168 379.451 24.3103 381.88 24.4999V25.3377H373.847V24.4841C376.387 24.3103 376.657 24.1522 376.657 21.639V15.6641H366.434V21.639C366.434 24.1206 366.672 24.2944 369.132 24.4841V25.3219H361.195V24.4841C363.592 24.3103 363.83 24.1522 363.83 21.639V9.56285C363.83 7.04962 363.592 6.93898 361.131 6.71769V5.89575H368.894V6.73349C366.624 6.93898 366.386 7.09704 366.386 9.57865V14.4154H376.61V9.56285C376.61 7.08123 376.371 6.93898 374.038 6.71769V5.89575H381.864L381.912 6.73349Z" fill="#8F8F8F"/>
<path d="M400.407 20.5959C400.232 21.5759 399.629 24.3894 399.359 25.3378H384.912V24.4843C387.643 24.2788 387.881 24.0417 387.881 21.6075V9.72105C387.881 7.03395 387.643 6.93911 385.309 6.73363V5.89588H398.676C398.676 6.63879 398.819 8.67782 398.914 10.1952L398.041 10.3375C397.88 9.42923 397.557 8.55682 397.089 7.76105C396.676 7.12879 395.866 6.9233 393.707 6.9233H391.437C390.5 6.9233 390.453 6.9233 390.453 7.8875V14.6843H393.199C395.898 14.6843 396.041 14.4472 396.374 12.4398H397.247V18.1775H396.374C395.977 16.0278 395.771 15.8381 393.199 15.8381H390.358V21.4969C390.358 22.9036 390.532 23.5359 391.072 23.9152C392.083 24.2985 393.172 24.4341 394.247 24.3104C396.517 24.3104 397.422 24.0733 398.025 23.2988C398.68 22.4575 399.175 21.504 399.486 20.4852L400.407 20.5959ZM391.342 3.08234C391.363 3.28068 391.342 3.48121 391.28 3.67093C391.218 3.86065 391.117 4.03531 390.983 4.18358C390.849 4.33185 390.685 4.45041 390.502 4.53157C390.319 4.61272 390.121 4.65466 389.921 4.65466C389.721 4.65466 389.523 4.61272 389.34 4.53157C389.157 4.45041 388.993 4.33185 388.859 4.18358C388.725 4.03531 388.624 3.86065 388.562 3.67093C388.5 3.48121 388.479 3.28068 388.5 3.08234C388.479 2.884 388.5 2.68346 388.562 2.49374C388.624 2.30402 388.725 2.12936 388.859 1.98109C388.993 1.83282 389.157 1.71426 389.34 1.63311C389.523 1.55195 389.721 1.51001 389.921 1.51001C390.121 1.51001 390.319 1.55195 390.502 1.63311C390.685 1.71426 390.849 1.83282 390.983 1.98109C391.117 2.12936 391.218 2.30402 391.28 2.49374C391.342 2.68346 391.363 2.884 391.342 3.08234ZM397.041 3.08234C397.045 3.26972 397.012 3.45605 396.943 3.6304C396.874 3.80474 396.77 3.96358 396.639 4.09757C396.507 4.23157 396.35 4.33803 396.176 4.4107C396.003 4.48336 395.816 4.52077 395.628 4.52072C395.241 4.52072 394.869 4.36751 394.595 4.0948C394.321 3.82209 394.168 3.45221 394.168 3.06653C394.168 2.68085 394.321 2.31097 394.595 2.03826C394.869 1.76554 395.241 1.61234 395.628 1.61234C395.815 1.61438 396 1.65333 396.171 1.72693C396.343 1.80052 396.498 1.90731 396.628 2.04109C396.758 2.17488 396.86 2.333 396.928 2.50631C396.996 2.67962 397.029 2.86466 397.025 3.05072L397.041 3.08234Z" fill="#8F8F8F"/>
<path d="M410.9 5.8959C412.668 5.7653 414.432 6.20298 415.932 7.14461C416.578 7.63697 417.093 8.27866 417.433 9.01407C417.774 9.74948 417.929 10.5564 417.885 11.3649C417.887 12.9382 417.282 14.452 416.194 15.5935C415.107 16.735 413.621 17.4167 412.043 17.4978C411.594 17.5279 411.143 17.5279 410.694 17.4978L408.471 16.9288V21.6707C408.471 24.2156 408.741 24.3578 411.44 24.5475V25.3853H403.312V24.4843C405.709 24.3104 405.947 24.0733 405.947 21.5759V9.62622C405.947 7.00235 405.709 6.8759 403.486 6.71784V5.8959H410.9ZM408.471 15.9488C409.175 16.195 409.916 16.318 410.662 16.3124C412.614 16.3124 415.012 15.2691 415.012 11.4598C415.074 10.8486 415.001 10.2311 414.797 9.65125C414.593 9.07137 414.264 8.54325 413.832 8.10432C413.4 7.66538 412.877 7.32639 412.299 7.11137C411.721 6.89635 411.102 6.81056 410.487 6.86009C409.902 6.80187 409.313 6.92909 408.804 7.22364C408.566 7.42913 408.471 7.79268 408.471 8.63042V15.9488Z" fill="#8F8F8F"/>
<path d="M421.282 25.3219V24.4841C423.569 24.3103 423.807 24.1206 423.807 21.5599V9.62607C423.807 7.08124 423.568 6.90736 421.346 6.71769V5.89575H428.982V6.73349C426.585 6.90736 426.315 7.03382 426.315 9.64188V13.8938C427.309 13.7613 428.312 13.7032 429.315 13.7199C434.078 13.7199 436.205 15.9012 436.205 19.1099C436.28 20.1157 436.063 21.1217 435.578 22.0076C435.094 22.8934 434.364 23.6215 433.475 24.1048C431.668 25.0495 429.639 25.4918 427.601 25.3851L421.282 25.3219ZM426.315 21.6706C426.315 23.5832 426.617 24.247 428.887 24.247C431.157 24.247 433.268 22.9351 433.268 19.3945C433.268 15.8538 431.316 14.6525 428.299 14.6525C427.636 14.6592 426.974 14.7014 426.315 14.779V21.6706ZM436.38 25.3219V24.4841C438.65 24.3419 438.904 24.0099 438.904 21.6074V9.56285C438.904 7.22349 438.666 6.90736 436.38 6.71769V5.89575H444V6.73349C441.698 6.90736 441.46 7.20769 441.46 9.57866V21.6232C441.46 24.0416 441.698 24.3419 443.984 24.4999V25.3377L436.38 25.3219Z" fill="#8F8F8F"/>
<path d="M71.1224 45.9809V45.5067C72.1384 45.3803 72.2813 45.2538 72.0749 44.6215C71.8685 43.9893 71.551 43.1357 71.1859 42.1557H67.7568C67.5028 42.8828 67.2647 43.5467 67.0583 44.2264C66.7091 45.238 66.8519 45.3961 68.0585 45.5067V45.9493H64.5818V45.5067C65.5978 45.3645 65.8201 45.2696 66.3757 43.9261L69.6936 35.517L70.1857 35.3748C71.1859 38.1251 72.2495 41.1757 73.3608 43.9577C73.8688 45.3328 74.0752 45.5383 75.1229 45.5383V45.9809H71.1224ZM69.5349 37.4138L68.0267 41.4919H70.9319L69.5349 37.4138Z" fill="#B9B9B9"/>
<path d="M85.0926 37.9039C85.0038 37.4175 84.8262 36.9514 84.5687 36.5287C84.3464 36.2126 83.8384 36.1177 82.8383 36.1177H81.8064C81.2032 36.1177 81.1555 36.1177 81.1555 36.7026V43.9261C81.1555 45.3013 81.2825 45.3961 82.743 45.5068V45.9335H78.425V45.5068C79.6474 45.4119 79.7744 45.3171 79.7744 43.9261V37.6035C79.7744 36.2126 79.6474 36.1494 78.4885 36.0229V35.5803H85.3942C85.3942 35.8648 85.4895 37.161 85.5688 37.8565L85.0926 37.9039Z" fill="#B9B9B9"/>
<path d="M96.8403 43.4519C96.745 43.9735 96.4275 45.491 96.2846 45.981H88.5375V45.5068C89.9981 45.3961 90.1251 45.2697 90.1251 43.9261V37.6035C90.1251 36.1652 89.9981 36.1177 88.7439 36.0229V35.5803H95.9036C95.9036 35.9755 95.983 37.0661 96.0306 37.8881L95.5703 37.9671C95.4847 37.4822 95.3126 37.0165 95.0622 36.5919C94.84 36.26 94.4114 36.1494 93.2525 36.1494H92.0301C91.538 36.1494 91.5062 36.1494 91.5062 36.6552V40.2906H93.0143C94.459 40.2906 94.6019 40.1642 94.7447 39.0894H95.2051V42.1558H94.7447C94.5384 41.0019 94.4272 40.9071 93.0302 40.9071H91.5697V43.9261C91.5697 44.6848 91.665 45.0168 91.9507 45.2223C92.4823 45.4205 93.0535 45.4909 93.6176 45.4277C94.84 45.4277 95.2845 45.3013 95.6338 44.8903C95.9955 44.4176 96.2647 43.8814 96.4275 43.3097L96.8403 43.4519Z" fill="#B9B9B9"/>
<path d="M110.985 36.0229C109.667 36.1335 109.54 36.2126 109.54 37.6035V44.0684C109.54 45.4119 109.667 45.491 110.969 45.649V46.0916H106.667V45.5068C108.032 45.4119 108.255 45.3329 108.255 43.9261V40.7648H102.682V43.9261C102.682 45.2539 102.809 45.3487 104.127 45.5068V45.9494H99.9359V45.5068C101.222 45.4119 101.349 45.3329 101.349 43.9261V37.6035C101.349 36.26 101.222 36.1968 99.9042 36.0229V35.5803H104.063V36.0229C102.841 36.1335 102.714 36.2126 102.714 37.6035V40.1326H108.191V37.6035C108.191 36.2758 108.064 36.1968 106.81 36.0229V35.5803H111.001L110.985 36.0229Z" fill="#B9B9B9"/>
<path d="M122.717 38.0463C122.643 37.5434 122.471 37.0599 122.209 36.6237C121.955 36.2443 121.685 36.1337 120.478 36.1337H119.335V44.0369C119.335 45.3014 119.462 45.4595 120.923 45.6175V46.0601H116.319V45.5069C117.78 45.4121 117.907 45.254 117.907 43.9263V36.023H116.97C115.637 36.023 115.383 36.1495 115.113 36.513C114.873 36.9593 114.702 37.4388 114.605 37.9356H114.144C114.224 36.9714 114.303 35.9282 114.335 35.0588H114.652C114.875 35.4224 115.081 35.454 115.541 35.454H121.891C122.052 35.4726 122.215 35.4453 122.362 35.3754C122.508 35.3055 122.631 35.1957 122.717 35.0588H123.05C123.05 35.8017 123.13 36.9714 123.209 37.8882L122.717 38.0463Z" fill="#B9B9B9"/>
<path d="M135.925 43.3413C135.681 44.1801 135.373 44.9991 135.004 45.7913C134.039 46.0419 133.049 46.185 132.052 46.218C131.316 46.2845 130.575 46.1965 129.877 45.9597C129.178 45.7229 128.537 45.3426 127.995 44.8434C127.453 44.3442 127.023 43.7372 126.732 43.0619C126.44 42.3865 126.295 41.6578 126.305 40.9229C126.305 37.5561 128.908 35.3274 132.48 35.3274C133.441 35.3621 134.394 35.5053 135.322 35.7542C135.449 36.6709 135.544 37.3348 135.639 38.1726L135.163 38.2832C135.114 37.9179 134.993 37.5658 134.807 37.2474C134.62 36.9291 134.372 36.6508 134.077 36.4287C133.781 36.2067 133.445 36.0453 133.086 35.9539C132.728 35.8625 132.354 35.843 131.988 35.8964C131.397 35.9144 130.816 36.0544 130.282 36.3077C129.748 36.561 129.272 36.922 128.886 37.3678C128.499 37.8136 128.21 38.3345 128.036 38.8975C127.862 39.4605 127.808 40.0533 127.876 40.6384C127.876 43.6258 129.639 45.6806 132.083 45.6806C133.671 45.6806 134.592 44.7955 135.385 43.199L135.925 43.3413Z" fill="#B9B9B9"/>
<path d="M147.895 38.0463C147.821 37.5435 147.648 37.0601 147.387 36.6237C147.133 36.2443 146.863 36.1337 145.657 36.1337H144.514V44.0369C144.514 45.3014 144.641 45.4595 146.101 45.6175V46.0601H141.497V45.5069C142.958 45.4121 143.085 45.254 143.085 43.9263V36.023H142.085C140.751 36.023 140.497 36.1495 140.227 36.513C139.988 36.9593 139.816 37.4388 139.719 37.9356H139.259C139.338 36.9714 139.418 35.9282 139.449 35.0588H139.767C139.989 35.4224 140.196 35.454 140.656 35.454H147.006C147.167 35.4726 147.33 35.4453 147.476 35.3754C147.622 35.3055 147.746 35.1957 147.832 35.0588H148.165C148.165 35.8017 148.244 36.9714 148.324 37.8882L147.895 38.0463Z" fill="#B9B9B9"/>
<path d="M156.849 40.3698C158.436 40.6069 159.69 41.3182 159.69 42.9147C159.681 43.4256 159.527 43.9235 159.246 44.3512C158.965 44.779 158.569 45.1192 158.103 45.3331C157.116 45.8115 156.024 46.0344 154.928 45.9811H151.451V45.5069C152.832 45.4121 152.928 45.3173 152.928 43.9263V37.6037C152.928 36.2759 152.928 36.1811 151.578 36.023V35.5805H155.706C156.547 35.5025 157.391 35.6905 158.119 36.1179C158.406 36.3252 158.639 36.599 158.796 36.9156C158.954 37.2323 159.032 37.5823 159.024 37.9356C158.994 38.5199 158.763 39.0763 158.37 39.511C157.977 39.9458 157.445 40.2323 156.865 40.3224L156.849 40.3698ZM155.071 40.1801C156.833 40.1801 157.579 39.4689 157.579 38.1253C157.611 37.836 157.576 37.5432 157.477 37.2693C157.378 36.9955 157.217 36.7477 157.007 36.545C156.798 36.3422 156.544 36.1898 156.266 36.0994C155.989 36.0089 155.694 35.9828 155.404 36.023C155.089 36.0049 154.774 36.059 154.483 36.1811C154.34 36.2759 154.277 36.4498 154.277 36.9872V40.1485L155.071 40.1801ZM154.277 43.9263C154.277 45.0802 154.579 45.3805 155.61 45.3805C155.935 45.4154 156.264 45.3794 156.574 45.2752C156.884 45.171 157.167 45.001 157.404 44.7769C157.641 44.5529 157.826 44.2802 157.947 43.9777C158.068 43.6753 158.121 43.3503 158.103 43.0253C158.103 41.4447 156.976 40.6543 155.023 40.6543H154.277V43.9263Z" fill="#B9B9B9"/>
<path d="M173.914 40.6384C173.961 41.363 173.856 42.0893 173.605 42.7713C173.355 43.4533 172.966 44.0763 172.461 44.6007C171.957 45.1251 171.349 45.5397 170.675 45.8181C170.002 46.0965 169.278 46.2327 168.549 46.2181C167.852 46.2205 167.162 46.0834 166.52 45.8147C165.878 45.5461 165.296 45.1515 164.81 44.6544C164.324 44.1574 163.944 43.5681 163.692 42.9216C163.439 42.275 163.32 41.5846 163.342 40.8913C163.309 40.1681 163.425 39.4459 163.683 38.7688C163.94 38.0917 164.333 37.4739 164.838 36.9532C165.343 36.4325 165.95 36.0198 166.621 35.7402C167.291 35.4607 168.012 35.3202 168.739 35.3274C169.432 35.3271 170.119 35.4654 170.757 35.7342C171.396 36.003 171.973 36.3968 172.456 36.8921C172.939 37.3875 173.317 37.9743 173.567 38.6179C173.818 39.2614 173.936 39.9485 173.914 40.6384ZM164.977 40.4329C164.977 43.4361 166.564 45.6332 168.898 45.6332C170.676 45.6332 172.279 44.1474 172.279 41.0652C172.279 37.6826 170.517 35.8964 168.406 35.8964C166.612 35.9123 164.977 37.4455 164.977 40.4329Z" fill="#B9B9B9"/>
<path d="M183.138 38.4571C183.249 37.6352 183.344 36.8765 183.471 36.1178C184.551 35.6819 185.692 35.4153 186.853 35.3274C187.535 35.2954 188.216 35.4062 188.852 35.6529C189.488 35.8996 190.065 36.2765 190.545 36.7593C191.026 37.2421 191.399 37.82 191.641 38.4556C191.882 39.0911 191.987 39.7702 191.949 40.4487C191.949 45.3013 188.44 46.2181 186.631 46.2181C185.47 46.2644 184.334 45.8688 183.456 45.1116C183.064 44.7922 182.813 44.3326 182.757 43.8313C182.743 43.6852 182.787 43.5395 182.879 43.4246C182.97 43.3098 183.103 43.2346 183.249 43.2149C183.487 43.2149 183.71 43.4362 183.868 43.7839C184.093 44.3703 184.501 44.8689 185.033 45.205C185.566 45.5412 186.193 45.6969 186.821 45.6491C188.806 45.6491 190.425 43.8787 190.441 40.9071L184.853 41.0336V40.1326L190.425 40.2749C190.298 37.1136 188.694 35.9281 186.789 35.9281C184.884 35.9281 184.106 37.3032 183.614 38.552L183.138 38.4571Z" fill="#B9B9B9"/>
<path d="M199.966 45.9809V45.5067C201.172 45.4118 201.299 45.3328 201.299 43.926V36.8922C201.299 36.1967 201.299 36.1335 200.696 36.1335H199.013C198.362 36.1335 198.331 36.1335 198.331 36.5919C198.331 40.9228 197.68 43.9102 196.537 45.396C196.124 45.9492 195.711 46.2021 195.378 46.2021C195.089 46.1992 194.803 46.1402 194.536 46.0283V45.7438C195.255 45.309 195.834 44.6782 196.203 43.926C197.229 41.7669 197.698 39.3876 197.569 37.0028C197.569 36.1651 197.299 36.0228 195.981 35.9438V35.5012H203.919V36.0228C202.696 36.1177 202.569 36.2441 202.569 37.4296V43.926C202.569 45.317 202.696 45.396 203.919 45.5067V45.9492L199.966 45.9809Z" fill="#B9B9B9"/>
<path d="M214.127 45.981V45.5068C215.365 45.4119 215.508 45.3329 215.508 43.9261V39.8006C215.508 39.279 215.508 38.3623 215.587 36.829L210.507 45.2064C210.4 45.3877 210.35 45.5971 210.364 45.8071V45.981H207.459V45.5068C208.681 45.4119 208.808 45.3013 208.808 43.8471V37.5245C208.808 36.26 208.681 36.1652 207.459 36.0703V35.6277H211.507V36.0229C210.301 36.1177 210.142 36.2126 210.142 37.4613V41.3655C210.142 42.1084 210.142 42.9461 210.142 44.5268L215.174 36.26C215.285 36.108 215.346 35.926 215.349 35.7384V35.5803H218.222V36.0229C217 36.1177 216.857 36.2442 216.857 37.6035V43.9261C216.857 45.3013 217 45.3803 218.222 45.5068V45.9494L214.127 45.981Z" fill="#B9B9B9"/>
<path d="M230.002 38.0463C229.928 37.5434 229.756 37.0599 229.494 36.6237C229.24 36.2443 228.97 36.1337 227.763 36.1337H226.62V44.0369C226.62 45.3014 226.747 45.4595 228.208 45.6175V46.0601H223.604V45.5069C225.065 45.4121 225.192 45.254 225.192 43.9263V36.023H224.191C222.858 36.023 222.604 36.1495 222.334 36.513C222.094 36.9593 221.923 37.4388 221.826 37.9356H221.366C221.445 36.9714 221.524 35.9282 221.556 35.0588H221.874C222.096 35.4224 222.302 35.454 222.763 35.454H229.113C229.274 35.4726 229.437 35.4453 229.583 35.3754C229.729 35.3055 229.852 35.1957 229.938 35.0588H230.272C230.272 35.8017 230.351 36.9714 230.43 37.8882L230.002 38.0463Z" fill="#B9B9B9"/>
<path d="M244.67 36.0229C243.353 36.1335 243.226 36.2126 243.226 37.6035V44.0684C243.226 45.4119 243.353 45.491 244.654 45.649V46.0916H240.352V45.5068C241.718 45.4119 241.86 45.3329 241.86 43.9261V40.7648H236.384V43.9261C236.384 45.2539 236.511 45.3487 237.828 45.5068V45.9494H233.605V45.5068C234.891 45.4119 235.018 45.3329 235.018 43.9261V37.6035C235.018 36.26 234.891 36.1968 233.574 36.0229V35.5803H237.733V36.0229C236.511 36.1335 236.384 36.2126 236.384 37.6035V40.1326H241.86V37.6035C241.86 36.2758 241.733 36.1968 240.479 36.0229V35.5803H244.67V36.0229Z" fill="#B9B9B9"/>
<path d="M258.545 40.6384C258.592 41.363 258.486 42.0893 258.236 42.7713C257.986 43.4533 257.597 44.0763 257.092 44.6007C256.588 45.1251 255.98 45.5397 255.306 45.8181C254.633 46.0965 253.909 46.2327 253.18 46.2181C252.483 46.2205 251.793 46.0834 251.151 45.8147C250.509 45.5461 249.927 45.1515 249.441 44.6544C248.955 44.1574 248.575 43.5681 248.323 42.9216C248.07 42.275 247.951 41.5846 247.973 40.8913C247.94 40.1681 248.056 39.4459 248.314 38.7688C248.571 38.0917 248.964 37.4739 249.469 36.9532C249.974 36.4325 250.581 36.0198 251.251 35.7402C251.922 35.4607 252.643 35.3202 253.37 35.3274C254.063 35.3271 254.75 35.4654 255.388 35.7342C256.026 36.003 256.604 36.3968 257.087 36.8921C257.57 37.3875 257.947 37.9743 258.198 38.6179C258.448 39.2614 258.567 39.9485 258.545 40.6384ZM249.608 40.4329C249.608 43.4361 251.195 45.6332 253.529 45.6332C255.307 45.6332 256.91 44.1474 256.91 41.0652C256.91 37.6826 255.148 35.8964 253.037 35.8964C251.243 35.9123 249.608 37.4455 249.608 40.4329Z" fill="#B9B9B9"/>
<path d="M268.69 45.9809V45.5067C269.928 45.4118 270.071 45.3328 270.071 43.926V39.8005C270.071 39.2789 270.071 38.3622 270.15 36.8289L265.07 45.2063C264.963 45.3876 264.913 45.597 264.927 45.807V45.9809H262.102V45.5067C263.324 45.4118 263.451 45.3012 263.451 43.847V37.5244C263.451 36.2599 263.324 36.1651 262.102 36.0702V35.6276H266.15V36.0228C264.943 36.1176 264.784 36.2125 264.784 37.4612V41.3654C264.784 42.1083 264.784 42.946 264.784 44.5267L269.817 36.2599C269.927 36.1079 269.988 35.9258 269.992 35.7383V35.5802H272.865V36.0228C271.643 36.1176 271.5 36.2441 271.5 37.6034V43.926C271.5 45.3012 271.643 45.3802 272.865 45.5067V45.9492L268.69 45.9809ZM265.515 33.5096C265.51 33.4204 265.524 33.3312 265.557 33.2481C265.59 33.165 265.641 33.0901 265.706 33.0285C265.771 32.9668 265.848 32.92 265.933 32.8911C266.018 32.8623 266.108 32.8522 266.197 32.8615C266.278 32.8649 266.358 32.8854 266.43 32.9217C266.503 32.958 266.567 33.0092 266.618 33.072C266.669 33.1348 266.706 33.2077 266.727 33.2859C266.747 33.3641 266.751 33.4457 266.737 33.5254C266.737 33.9522 267.055 34.1893 267.594 34.1893C268.134 34.1893 268.452 33.9363 268.436 33.5254C268.422 33.4431 268.426 33.3588 268.449 33.2784C268.471 33.198 268.511 33.1235 268.565 33.0602C268.62 32.9968 268.688 32.9462 268.764 32.9119C268.84 32.8775 268.924 32.8603 269.007 32.8615C269.088 32.8655 269.167 32.8856 269.24 32.9205C269.313 32.9555 269.378 33.0047 269.431 33.0651C269.484 33.1256 269.525 33.196 269.55 33.2724C269.576 33.3487 269.585 33.4294 269.579 33.5096C269.579 34.2841 268.785 34.8057 267.594 34.8057C266.404 34.8057 265.562 34.2683 265.562 33.5096H265.515Z" fill="#B9B9B9"/>
<path d="M292.82 36.0229C291.502 36.1335 291.375 36.2126 291.375 37.6035V44.0684C291.375 45.4119 291.502 45.491 292.804 45.649V46.0916H288.423V45.5068C289.788 45.4119 290.01 45.3329 290.01 43.9261V40.7648H284.533V43.9261C284.533 45.2539 284.66 45.3487 285.978 45.5068V45.9494H281.755V45.5068C283.041 45.4119 283.168 45.3329 283.168 43.9261V37.6035C283.168 36.26 283.041 36.1968 281.723 36.0229V35.5803H285.883V36.0229C284.66 36.1335 284.533 36.2126 284.533 37.6035V40.1326H290.01V37.6035C290.01 36.2758 289.883 36.1968 288.629 36.0229V35.5803H292.82V36.0229Z" fill="#B9B9B9"/>
<path d="M304.298 43.4519C304.202 43.9735 303.885 45.491 303.742 45.981H296.011V45.5068C297.471 45.3961 297.598 45.2697 297.598 43.9261V37.6035C297.598 36.1652 297.471 36.1177 296.217 36.0229V35.5803H303.377C303.377 35.9755 303.456 37.0661 303.504 37.8881L303.044 37.9671C302.958 37.4823 302.786 37.0166 302.536 36.5919C302.313 36.26 301.885 36.1494 300.726 36.1494H299.535C299.043 36.1494 299.011 36.1494 299.011 36.6552V40.2906H300.599C302.043 40.2906 302.186 40.1642 302.329 39.0894H302.71V42.1558H302.25C302.043 41.0019 301.932 40.9071 300.535 40.9071H298.948V43.9261C298.948 44.6848 299.043 45.0168 299.329 45.2223C299.86 45.4205 300.432 45.4909 300.996 45.4277C302.218 45.4277 302.663 45.3013 303.012 44.8903C303.368 44.4164 303.632 43.8803 303.79 43.3097L304.298 43.4519Z" fill="#B9B9B9"/>
<path d="M316.189 48.668H315.712L315.522 47.2454C315.395 46.1706 315.157 45.9809 314.363 45.9809H309.314C308.394 45.9809 308.219 46.2496 307.949 47.3086L307.584 48.668H307.108L307.187 45.3961H307.854C307.963 45.4124 308.073 45.3895 308.167 45.3315C308.26 45.2735 308.329 45.1843 308.362 45.0799C309.411 42.5364 309.898 39.7979 309.791 37.0503C309.791 36.2916 309.568 36.2125 308.87 36.1019L308.235 36.007V35.5645H316.427V36.0228C315.188 36.1177 315.061 36.2125 315.061 37.6035V44.5109C315.061 45.2696 315.141 45.3486 315.617 45.3486H316.554L316.189 48.668ZM313.696 37.2399C313.696 36.1967 313.696 36.1335 313.077 36.1335H311.22C310.6 36.1335 310.553 36.1335 310.553 36.6393C310.618 39.4443 310.226 42.2413 309.394 44.9219C309.283 45.238 309.299 45.3961 309.695 45.3961H312.712C313.537 45.3961 313.712 45.238 313.712 44.2106L313.696 37.2399Z" fill="#B9B9B9"/>
<path d="M325.221 40.3697C326.809 40.6068 328.063 41.3181 328.063 42.9146C328.054 43.4255 327.9 43.9234 327.619 44.3511C327.338 44.7788 326.942 45.1191 326.476 45.333C325.489 45.8114 324.397 46.0343 323.301 45.981H319.76V45.5068C321.141 45.412 321.237 45.3171 321.237 43.9262V37.6036C321.237 36.2759 321.237 36.181 319.887 36.023V35.5804H324.015C324.856 35.5013 325.701 35.6894 326.428 36.1178C326.715 36.3251 326.948 36.5989 327.106 36.9155C327.263 37.2322 327.341 37.5822 327.333 37.9355C327.303 38.5199 327.073 39.0762 326.679 39.5109C326.286 39.9457 325.754 40.2322 325.174 40.3223L325.221 40.3697ZM323.348 40.1801C325.11 40.1801 325.856 39.4688 325.856 38.1252C325.879 37.8441 325.839 37.5615 325.74 37.2975C325.64 37.0336 325.483 36.7949 325.279 36.5985C325.076 36.4021 324.832 36.2529 324.564 36.1616C324.296 36.0703 324.011 36.0392 323.729 36.0704C323.414 36.0523 323.099 36.1064 322.808 36.2284C322.666 36.3233 322.602 36.4972 322.602 37.0346V40.1959L323.348 40.1801ZM322.602 43.9736C322.602 45.1275 322.904 45.4278 323.936 45.4278C324.268 45.4779 324.607 45.4534 324.929 45.356C325.25 45.2587 325.546 45.091 325.794 44.8652C326.042 44.6395 326.236 44.3613 326.363 44.0511C326.489 43.741 326.544 43.4067 326.523 43.0726C326.523 41.492 325.396 40.7017 323.443 40.7017H322.713L322.602 43.9736Z" fill="#B9B9B9"/>
<path d="M338.112 45.981V45.5068C339.35 45.4119 339.493 45.3329 339.493 43.9261V39.8006C339.493 39.279 339.493 38.3623 339.573 36.829L334.461 45.1906C334.353 45.3719 334.304 45.5813 334.318 45.7913V45.9652H331.492V45.5068C332.715 45.4119 332.842 45.3013 332.842 43.8471V37.5245C332.842 36.26 332.715 36.1652 331.492 36.0703V35.6277H335.54V36.0229C334.334 36.1177 334.175 36.2126 334.175 37.4613V41.3655C334.175 42.1084 334.175 42.9461 334.175 44.5268L339.223 36.26C339.333 36.1076 339.394 35.9258 339.398 35.7384V35.5803H342.271V36.0229C341.049 36.1177 340.906 36.2442 340.906 37.6035V43.9261C340.906 45.3013 341.049 45.3803 342.271 45.5068V45.9494L338.112 45.981Z" fill="#B9B9B9"/>
<path d="M358.639 45.9809C357.623 45.9809 357.178 45.4277 356.718 44.5109L355.575 42.219C354.924 40.8596 354.289 40.6384 353.273 40.6384V43.9261C353.273 45.2696 353.416 45.3961 354.638 45.5067V45.9493H350.558V45.5067C351.797 45.4119 351.924 45.3013 351.924 43.9261V40.7648C351.415 40.6984 350.899 40.8103 350.465 41.0815C350.03 41.3526 349.704 41.766 349.542 42.2506C349.114 43.1358 348.669 44.1 348.447 44.5584C348.002 45.4751 347.526 46.0284 346.542 46.0284H345.208V45.5067C345.986 45.5067 346.447 45.238 347.002 44.1948C347.558 43.1516 347.971 42.3771 348.272 41.8871C348.45 41.5145 348.702 41.1821 349.013 40.9102C349.324 40.6384 349.688 40.4329 350.082 40.3064C349.341 39.8344 348.781 39.1271 348.494 38.299C347.796 36.8606 347.51 36.3864 346.796 36.3864H346.478C346.336 36.4 346.193 36.3583 346.081 36.2699C345.969 36.1816 345.895 36.0534 345.875 35.9122C345.875 35.5803 346.161 35.2642 346.716 35.2642C347.272 35.2642 348.066 35.7067 348.606 36.9396C348.926 37.8691 349.416 38.7318 350.05 39.4845C350.302 39.7327 350.607 39.9201 350.943 40.0325C351.279 40.1448 351.636 40.179 351.987 40.1325V37.4613C351.987 36.1967 351.86 36.1177 350.622 36.0229V35.5803H354.702V36.0229C353.479 36.1177 353.336 36.1967 353.336 37.4613V40.1958C353.692 40.2402 354.054 40.2051 354.394 40.093C354.735 39.9809 355.046 39.7946 355.305 39.5477C355.93 38.8019 356.404 37.9432 356.702 37.0187C357.258 35.77 357.909 35.3274 358.623 35.3274C359.337 35.3274 359.448 35.6435 359.448 35.9754C359.448 36.3074 359.163 36.4496 358.813 36.4496H358.48C357.766 36.4496 357.448 37.0345 356.893 38.3306C356.595 39.1613 356.039 39.8756 355.305 40.3696C355.704 40.4871 356.072 40.6893 356.384 40.9622C356.697 41.235 356.946 41.5722 357.115 41.9503C357.401 42.4403 357.829 43.2938 358.369 44.258C358.909 45.2222 359.401 45.5067 360.163 45.57V46.0125L358.639 45.9809Z" fill="#B9B9B9"/>
<path d="M369.704 45.981V45.5068C370.942 45.4119 371.085 45.3329 371.085 43.9261V39.8006C371.085 39.279 371.085 38.3623 371.164 36.829L366.084 45.2064C365.977 45.3877 365.927 45.5971 365.941 45.8071V45.981H363.036V45.5068C364.259 45.4119 364.386 45.3013 364.386 43.8471V37.5245C364.386 36.26 364.259 36.1652 363.036 36.0703V35.6277H367.084V36.0229C365.878 36.1177 365.719 36.2126 365.719 37.4613V41.3655C365.719 42.1084 365.719 42.9461 365.719 44.5268L370.752 36.26C370.861 36.1076 370.922 35.9258 370.926 35.7384V35.5803H373.8V36.0229C372.577 36.1177 372.434 36.2442 372.434 37.6035V43.9261C372.434 45.3013 372.577 45.3803 373.8 45.5068V45.9494L369.704 45.981Z" fill="#B9B9B9"/>
<path d="M386.135 45.9811V45.5069C387.437 45.3804 387.5 45.3014 387.484 43.5943V37.0662L383.563 45.8388H383.245L379.658 37.2875L379.419 41.8556C379.419 43.1675 379.419 43.8788 379.419 44.5111C379.419 45.1434 379.832 45.3963 380.896 45.5069V45.9495H377.165V45.5069C378.102 45.3963 378.419 45.2224 378.53 44.5427C378.642 43.863 378.705 43.2782 378.832 41.6185L379.054 38.2833C379.197 36.1969 379.054 36.1337 377.657 35.9914V35.5488H380.293L383.944 43.5627L387.643 35.5488H390.373V36.023C388.961 36.1495 388.786 36.1811 388.897 37.825L389.056 43.6259C389.056 45.3172 389.151 45.3963 390.548 45.5385V45.9811H386.135Z" fill="#B9B9B9"/>
<path d="M404.217 40.6384C404.263 41.3616 404.158 42.0866 403.909 42.7675C403.66 43.4484 403.271 44.0706 402.769 44.5948C402.266 45.119 401.66 45.5338 400.988 45.8132C400.317 46.0926 399.594 46.2304 398.867 46.2181C398.169 46.2226 397.477 46.087 396.833 45.8193C396.189 45.5517 395.605 45.1574 395.118 44.6601C394.63 44.1629 394.248 43.5728 393.995 42.9252C393.742 42.2777 393.622 41.5859 393.644 40.8913C393.611 40.1681 393.727 39.4458 393.985 38.7688C394.242 38.0917 394.635 37.4739 395.14 36.9532C395.645 36.4325 396.252 36.0198 396.923 35.7402C397.593 35.4607 398.314 35.3202 399.041 35.3274C399.734 35.3271 400.421 35.4654 401.059 35.7342C401.698 36.003 402.275 36.3967 402.758 36.8921C403.241 37.3875 403.619 37.9743 403.869 38.6179C404.12 39.2614 404.238 39.9485 404.217 40.6384ZM395.279 40.4329C395.279 43.4361 396.866 45.6332 399.2 45.6332C400.978 45.6332 402.581 44.1474 402.581 41.0652C402.581 37.6826 400.819 35.8964 398.708 35.8964C396.914 35.9122 395.279 37.4455 395.279 40.4329Z" fill="#B9B9B9"/>
<path d="M417.647 43.3413C417.403 44.18 417.095 44.999 416.726 45.7913C415.761 46.042 414.77 46.1852 413.773 46.218C413.038 46.2845 412.297 46.1965 411.598 45.9597C410.9 45.7229 410.259 45.3426 409.717 44.8434C409.175 44.3442 408.745 43.7372 408.453 43.0619C408.162 42.3865 408.017 41.6578 408.026 40.9229C408.026 37.5561 410.63 35.3274 414.202 35.3274C415.162 35.3621 416.116 35.5053 417.044 35.7542C417.171 36.6709 417.266 37.3348 417.361 38.1726L416.885 38.2832C416.836 37.9179 416.715 37.5658 416.529 37.2474C416.342 36.9291 416.094 36.6508 415.799 36.4287C415.503 36.2067 415.166 36.0453 414.808 35.9539C414.449 35.8625 414.076 35.843 413.71 35.8964C413.119 35.9144 412.537 36.0544 412.003 36.3077C411.469 36.561 410.994 36.922 410.607 37.3678C410.221 37.8136 409.932 38.3345 409.758 38.8975C409.584 39.4605 409.53 40.0533 409.598 40.6384C409.598 43.6258 411.36 45.6806 413.805 45.6806C415.393 45.6806 416.313 44.7955 417.107 43.199L417.647 43.3413Z" fill="#B9B9B9"/>
<path d="M429.617 38.0463C429.542 37.5436 429.37 37.0603 429.109 36.6237C428.855 36.2443 428.585 36.1337 427.378 36.1337H426.235V44.0369C426.235 45.3014 426.362 45.4595 427.823 45.6175V46.0601H423.362V45.5069C424.822 45.4121 424.949 45.254 424.949 43.9263V36.023H423.949C422.616 36.023 422.362 36.1495 422.092 36.513C421.852 36.9592 421.681 37.4388 421.584 37.9356H421.124C421.203 36.9714 421.282 35.9282 421.314 35.0588H421.632C421.854 35.4224 422.06 35.454 422.521 35.454H428.871C429.032 35.4726 429.195 35.4453 429.341 35.3754C429.487 35.3055 429.61 35.1957 429.696 35.0588H430.029C430.029 35.8017 430.109 36.9714 430.188 37.8882L429.617 38.0463Z" fill="#B9B9B9"/>
<path d="M439.92 45.981V45.5068C441.158 45.4119 441.301 45.3329 441.301 43.9261V39.8006C441.301 39.279 441.301 38.3623 441.381 36.829L436.3 45.2064C436.193 45.3877 436.143 45.5971 436.158 45.8071V45.981H433.332V45.5068C434.554 45.4119 434.681 45.3013 434.681 43.8471V37.5245C434.681 36.26 434.554 36.1652 433.332 36.0703V35.6277H437.38V36.0229C436.174 36.1177 436.015 36.2126 436.015 37.4613V41.3655C436.015 42.1084 436.015 42.9461 436.015 44.5268L441.047 36.26C441.157 36.1076 441.218 35.9258 441.222 35.7384V35.5803H444V36.0229C442.778 36.1177 442.635 36.2442 442.635 37.6035V43.9261C442.635 45.3013 442.778 45.3803 444 45.5068V45.9494L439.92 45.981Z" fill="#B9B9B9"/>
<path d="M260.339 25.3219L258.958 23.7413C257.195 24.9897 255.104 25.6984 252.941 25.7803C251.988 25.804 251.04 25.6388 250.151 25.2942C249.263 24.9495 248.452 24.4324 247.766 23.7729C247.085 23.1453 246.545 22.3815 246.181 21.5317C245.817 20.6818 245.638 19.765 245.655 18.8413C245.655 15.68 247.48 13.4934 251.132 12.2816C250.159 10.9779 249.576 9.42741 249.449 7.80839C249.433 7.17458 249.554 6.54477 249.803 5.96133C250.052 5.37788 250.424 4.85431 250.894 4.42581C251.882 3.52141 253.187 3.03903 254.529 3.08226C255.895 3.04888 257.225 3.52209 258.26 4.41001C258.719 4.79651 259.083 5.28212 259.325 5.82993C259.567 6.37773 259.681 6.97328 259.657 7.5713C259.657 9.98441 258.027 11.7758 254.767 12.9455L255.323 13.8623C256.54 15.8539 258.217 18.3039 260.355 21.2123C261.249 19.8408 261.703 18.2311 261.657 16.5968C261.695 16.1179 261.647 15.6361 261.514 15.1742C261.419 14.9951 261.16 14.9055 260.736 14.9055H259.45H259.165V13.8939H266.023V14.7948H265.721C265.097 14.7851 264.473 14.8488 263.864 14.9845C263.758 15.0583 263.705 15.4534 263.705 16.17C263.439 18.3145 262.494 20.3188 261.006 21.8919L261.752 22.6823L262.324 23.2829C262.661 23.7336 263.125 24.0746 263.657 24.2629L265.626 24.421H265.832V25.3219H260.339ZM258.26 23.0616C255.815 19.8913 253.556 16.5821 251.497 13.151C250.577 13.6134 249.807 14.3239 249.273 15.2016C248.74 16.0792 248.465 17.0885 248.48 18.1142C248.456 18.9148 248.591 19.7123 248.877 20.4609C249.163 21.2096 249.595 21.8946 250.147 22.4768C250.679 23.0465 251.326 23.4975 252.046 23.7999C252.766 24.1023 253.542 24.2494 254.323 24.2313C255.721 24.2264 257.088 23.8203 258.26 23.0616ZM254.259 12.1394C255.106 11.5887 255.796 10.829 256.26 9.93433C256.725 9.03962 256.949 8.04037 256.91 7.03388C256.91 5.04226 256.154 4.04646 254.64 4.04646C253.127 4.04646 252.343 5.03699 252.291 7.01807C252.419 8.49408 252.91 9.91606 253.719 11.1594L254.259 12.1394Z" fill="#B5A798"/>
</g>
<path d="M42.666 32.5258C42.2559 31.7353 41.7581 30.9927 41.1818 30.3117C40.3185 29.3114 39.3032 28.4506 38.1726 27.7601C37.357 27.2351 36.4958 26.7833 35.5991 26.4101C34.4324 25.94 33.2305 25.5608 32.0044 25.276L30.9151 25.0465L31.2419 24.979L31.7185 24.871C32.806 24.636 33.8753 24.3247 34.9183 23.9395H35C35.6126 23.7202 36.2126 23.4678 36.7974 23.1835C37.8555 22.6738 38.8476 22.0392 39.7521 21.2934C40.5944 20.5856 41.3364 19.7682 41.9579 18.8633C42.3886 18.238 42.7493 17.5681 43.0336 16.8653C43.3605 16.0534 43.5891 15.206 43.7144 14.3407C43.7853 13.8533 43.8217 13.3616 43.8234 12.8691C43.8184 12.2755 43.7591 11.6836 43.6464 11.1006C43.4682 10.1541 43.1371 9.24238 42.666 8.40049C42.2718 7.66518 41.782 6.98434 41.209 6.37542C40.5048 5.66352 39.6914 5.06662 38.799 4.60686C37.7502 4.05066 36.6041 3.69785 35.4221 3.56733C35.0485 3.49663 34.6712 3.44705 34.292 3.41882C33.4338 3.42252 32.5791 3.52675 31.7457 3.72933C30.9571 3.91224 30.1936 4.18874 29.4718 4.55286C28.6699 4.95891 27.9164 5.45249 27.2251 6.02441C26.2113 6.87938 25.3385 7.88603 24.638 9.00801C24.1084 9.81666 23.6527 10.6706 23.2763 11.5596C22.8054 12.7255 22.4275 13.9262 22.1462 15.1507C22.0645 15.5107 21.9828 15.8752 21.9011 16.2442C21.7156 15.3332 21.4839 14.432 21.2066 13.5442C21.0024 12.8691 20.7573 12.1941 20.4986 11.5866C20.1549 10.7547 19.7451 9.95114 19.2731 9.18351C19.0141 8.74437 18.7228 8.32472 18.4017 7.92797C17.8342 7.22615 17.2005 6.57969 16.509 5.99741C15.823 5.46567 15.0785 5.01276 14.2895 4.64736C13.4151 4.16489 12.4749 3.81022 11.4982 3.59433C10.8464 3.47982 10.1858 3.4211 9.52383 3.41882C7.61358 3.40921 5.7445 3.96893 4.159 5.02538C3.2763 5.58761 2.50548 6.30609 1.88506 7.14494C1.51078 7.64317 1.18696 8.17676 0.918303 8.738C0.568787 9.49091 0.317147 10.2848 0.169411 11.1006C-0.0564704 12.3189 -0.0564704 13.5679 0.169411 14.7862C0.316858 15.6548 0.582524 16.4995 0.959151 17.2973C1.1911 17.7993 1.45488 18.2863 1.7489 18.7553L1.81699 18.8633C2.03485 19.1738 2.26633 19.4843 2.51142 19.8084C3.39733 20.8844 4.46648 21.7982 5.67041 22.5084C6.49186 23.0398 7.36273 23.4918 8.27113 23.8585C9.12896 24.196 9.86424 24.439 10.5723 24.6415C11.2803 24.844 12.1245 25.0465 12.9279 25.2085C12.0091 25.3925 11.1001 25.6223 10.2046 25.8971C9.52383 26.0996 8.84301 26.3426 8.23028 26.5991C7.39136 26.9402 6.58093 27.3464 5.80657 27.8141C5.36371 28.071 4.94047 28.3598 4.54025 28.6781C3.83225 29.2406 3.18022 29.869 2.59312 30.5547C2.05643 31.2346 1.5996 31.9729 1.23148 32.7553C0.759687 33.5847 0.4068 34.4753 0.18302 35.4014C0.067595 36.0477 0.00837697 36.7026 0.0060113 37.3589C-0.00770748 39.2515 0.552035 41.1046 1.61274 42.6781C2.19214 43.5251 2.92095 44.2614 3.76412 44.8517C4.26662 45.2228 4.8048 45.5438 5.37085 45.8102C6.11299 46.1523 6.8951 46.4017 7.69924 46.5527C8.93257 46.7771 10.1968 46.7771 11.4301 46.5527C12.306 46.4059 13.1579 46.1425 13.9628 45.7697C14.4691 45.5397 14.9603 45.2782 15.4333 44.9867L15.5423 44.9192C15.8554 44.7032 16.1686 44.4737 16.4954 44.2307C17.5792 43.3561 18.5008 42.3008 19.2187 41.112C19.7547 40.2977 20.2106 39.4342 20.5803 38.5335C20.9207 37.6829 21.1658 36.9539 21.37 36.2654C21.5743 35.5769 21.7785 34.7398 21.9419 33.9568L22.0236 34.2808L22.1189 34.7398C22.3602 35.8185 22.6787 36.8787 23.0721 37.9124V37.9935C23.2935 38.5963 23.548 39.1868 23.8346 39.762C24.3492 40.8066 24.9893 41.7858 25.7409 42.6781C26.4548 43.5133 27.2792 44.249 28.1918 44.8652C28.8233 45.2872 29.499 45.6402 30.207 45.9182C31.026 46.2419 31.8807 46.4684 32.7533 46.5932C33.2539 46.6643 33.759 46.7004 34.2647 46.7012C34.8767 46.7033 35.4875 46.6491 36.0893 46.5392C37.043 46.3666 37.9625 46.0429 38.8126 45.5807C40.4679 44.7356 41.8118 43.3938 42.6524 41.7466C43.2143 40.7072 43.5702 39.5706 43.7008 38.3985C43.8433 37.1608 43.7603 35.9079 43.4557 34.6993C43.2785 33.9469 43.0135 33.2174 42.666 32.5258ZM22.5955 19.7409C22.7669 18.2715 23.0353 16.8148 23.3989 15.3802C23.6732 14.2289 24.0374 13.1005 24.4882 12.0051C24.8167 11.1841 25.2176 10.3935 25.6864 9.64253C26.3208 8.62727 27.111 7.7163 28.0284 6.94244C28.6472 6.41925 29.3232 5.96641 30.0436 5.59239C30.6788 5.27029 31.3509 5.02551 32.0452 4.86337C32.7819 4.69519 33.536 4.61362 34.292 4.62036C34.6411 4.59966 34.9912 4.59966 35.3404 4.62036C36.3744 4.73262 37.3773 5.03963 38.2952 5.52489C39.0761 5.92437 39.7884 6.4438 40.4057 7.06394C40.9089 7.60008 41.3392 8.19918 41.6856 8.846C42.0793 9.61219 42.3416 10.438 42.4617 11.2896C42.5617 11.8148 42.6119 12.3481 42.6115 12.8826C42.6127 13.3343 42.5809 13.7855 42.5162 14.2327C42.402 15.0011 42.1963 15.7534 41.9035 16.4737C41.655 17.0906 41.34 17.679 40.964 18.2288C40.4031 19.0428 39.7345 19.7784 38.976 20.4159C38.1415 21.0982 37.2272 21.6784 36.2527 22.1439C35.7076 22.4077 35.1485 22.642 34.5779 22.846H34.4962C33.5066 23.2138 32.4919 23.5115 31.4597 23.737L31.0104 23.8315L30.5747 23.926L30.139 24.034C29.8939 24.034 28.1101 24.385 27.5246 24.439C27.1706 24.439 22.5274 24.439 22.5274 24.439C22.5274 24.439 22.5274 21.3069 22.5274 20.4969C22.5547 20.2539 22.5683 19.9974 22.5955 19.7409ZM8.70685 22.6299C7.87192 22.31 7.06949 21.9122 6.31037 21.4419C5.22592 20.7973 4.26294 19.9704 3.46456 18.9983C3.23308 18.7013 3.01523 18.3908 2.79736 18.0938L2.72928 17.9858C2.53865 17.7293 2.08931 16.8113 2.04846 16.6358C1.72294 15.9359 1.49394 15.1957 1.36764 14.4352C1.16809 13.3597 1.16809 12.2571 1.36764 11.1816C1.49991 10.4823 1.71946 9.80203 2.02123 9.15651C2.26287 8.68027 2.55013 8.22818 2.87906 7.80647C3.41207 7.09135 4.07186 6.47835 4.8262 5.99741C6.21606 5.09272 7.84779 4.62242 9.51022 4.64736C10.1038 4.65112 10.696 4.70532 11.2803 4.80937C12.1358 4.95775 12.9656 5.22594 13.7449 5.60589C14.4538 5.94766 15.1208 6.36893 15.7329 6.86144C16.3646 7.39518 16.9437 7.98738 17.4622 8.62999C17.7438 8.98442 17.9986 9.35895 18.2247 9.75053C18.645 10.4548 19.0092 11.1906 19.314 11.9511C19.5591 12.5451 19.7905 13.1661 19.9812 13.8142C20.2991 14.8373 20.5538 15.8788 20.7437 16.9328C20.9554 18.1214 21.1054 19.32 21.193 20.5239V24.466H17.2715C16.4954 24.466 15.7193 24.358 14.9431 24.25C13.563 24.0625 12.1979 23.7782 10.8582 23.3995C10.2319 23.251 9.53745 22.954 8.70685 22.6299ZM20.9615 31.9858C20.7732 33.3543 20.4865 34.7078 20.1037 36.0359C19.9131 36.6974 19.668 37.3859 19.3412 38.196C19.0179 39.0192 18.6167 39.8103 18.143 40.5585C17.4888 41.6348 16.6501 42.5897 15.6648 43.3801C15.3652 43.6096 15.0521 43.8256 14.7525 44.0416L14.6436 44.1091C14.3849 44.2982 13.459 44.7302 13.2819 44.7842C12.576 45.1069 11.8295 45.334 11.0625 45.4592C9.97763 45.6559 8.86579 45.6559 7.78094 45.4592C7.07119 45.3283 6.38056 45.1107 5.72487 44.8112C5.24467 44.5714 4.78871 44.2866 4.36323 43.9606C3.64178 43.4324 3.02348 42.7782 2.53865 42.0301C1.62465 40.6527 1.15018 39.0344 1.17702 37.3859C1.18047 36.7973 1.23515 36.2101 1.34042 35.6309C1.48989 34.7827 1.76039 33.9599 2.14378 33.1873C2.49324 32.4882 2.92272 31.8314 3.42371 31.2297C3.96192 30.6032 4.55921 30.0291 5.20745 29.5152C5.56498 29.236 5.94272 28.9834 6.33761 28.7591C7.06004 28.3271 7.81584 27.9524 8.59792 27.6386C9.19703 27.3956 9.82339 27.1796 10.477 26.9771C11.5091 26.6624 12.5595 26.4099 13.6223 26.2211C14.8167 25.9777 16.0271 25.8198 17.2443 25.7486H21.2203V29.6232C21.1989 30.4135 21.1353 31.2021 21.0296 31.9858H20.9615ZM42.4617 38.331C42.3468 39.3515 42.0372 40.3411 41.5495 41.2471C41.1424 42.0223 40.6139 42.7286 39.9836 43.3396C39.4422 43.834 38.838 44.2561 38.1862 44.5952C37.4386 45.0015 36.6291 45.2842 35.7897 45.4322C35.26 45.5309 34.7221 45.5807 34.183 45.5807C33.7274 45.5815 33.2724 45.5499 32.8214 45.4862C32.0418 45.3736 31.2785 45.1697 30.5475 44.8787C29.9207 44.6329 29.3227 44.3205 28.7637 43.9471C27.9426 43.3912 27.2007 42.7282 26.5579 41.9761C25.8694 41.1489 25.2842 40.2423 24.815 39.276C24.5492 38.7354 24.3128 38.1811 24.1069 37.6154V37.5344C23.7356 36.5534 23.4353 35.5473 23.2082 34.5238L23.1129 34.0783L23.0176 33.6463L22.9087 33.2143C22.6572 32.0224 22.5024 30.8125 22.4457 29.5962C22.4457 29.2452 22.4457 25.6945 22.4457 25.6945C22.4457 25.6945 27.2251 25.6945 27.4702 25.6945C28.8877 25.8423 30.2935 26.0859 31.6776 26.4236C32.8429 26.691 33.9856 27.0476 35.0953 27.4901C35.9231 27.8162 36.7205 28.2138 37.4782 28.6781C38.5012 29.303 39.4199 30.0819 40.2014 30.9867C40.7291 31.6003 41.1858 32.2705 41.5631 32.9848C41.8871 33.6101 42.134 34.2719 42.2983 34.9559C42.59 36.0562 42.6731 37.2006 42.5434 38.331H42.4617Z" fill="#7C7C7C" fill-opacity="0.3"/>
<path d="M21.5932 16.9911C21.4369 16.9887 21.2869 16.9313 21.1712 16.8298C21.0556 16.7283 20.9822 16.5896 20.9648 16.4397L19.6224 4.03317C19.6239 3.88047 19.6837 3.73367 19.7903 3.62088C19.897 3.50808 20.043 3.43721 20.2004 3.42185C20.3578 3.40649 20.5155 3.4477 20.6434 3.53761C20.7713 3.62751 20.8603 3.75979 20.8934 3.90911L22.2358 16.3156C22.2518 16.4781 22.2008 16.6401 22.0939 16.7666C21.987 16.893 21.8327 16.9737 21.6646 16.9911H21.5932Z" fill="#7C7C7C" fill-opacity="0.3"/>
<path d="M22.1588 16.9883C21.9906 16.9709 21.8364 16.8902 21.7295 16.7638C21.6225 16.6374 21.5715 16.4754 21.5875 16.313L22.93 3.90901C22.9631 3.75972 23.0521 3.62747 23.18 3.53758C23.3079 3.4477 23.4656 3.40649 23.623 3.42185C23.7804 3.43721 23.9264 3.50806 24.033 3.62083C24.1397 3.73361 24.1995 3.88038 24.201 4.03305L22.8585 16.437C22.8405 16.5993 22.757 16.7481 22.626 16.8513C22.495 16.9545 22.3271 17.0037 22.1588 16.9883Z" fill="#7C7C7C" fill-opacity="0.3"/>
<defs>
<clipPath id="clip0">
<rect width="379.418" height="49" fill="white" transform="translate(64.5818)"/>
</clipPath>
</defs>
</svg>
