<svg width="598" height="65" viewBox="0 0 598 65" fill="none" xmlns="http://www.w3.org/2000/svg">
<g clip-path="url(#clip0)">
<path d="M103.446 33.5903V32.479C105.99 32.1645 106.354 31.85 105.819 30.3823C105.285 28.9145 104.493 26.6919 103.681 24.2806H95.1283C94.4868 26.0629 93.8668 27.7403 93.3536 29.3968C92.4556 31.8919 92.8191 32.2903 95.8553 32.5629V33.6742H86.9819V32.479C89.5263 32.1226 90.0823 31.8919 91.4934 28.3903L99.8108 7.56934L101.072 7.21289C103.617 14.0484 106.225 21.5758 108.898 28.4742C110.181 31.8919 110.715 32.2484 113.345 32.479V33.5903H103.446ZM99.4901 12.371C98.1217 15.7887 96.8388 19.2274 95.5345 22.4984H103.039L99.4901 12.371Z" fill="white"/>
<path d="M117.921 33.5903V32.479C120.957 32.2484 121.321 31.9967 121.321 28.5161V12.7274C121.321 9.3935 120.957 9.16286 117.964 8.91125V7.82092H127.607V8.93221C124.977 9.16286 124.613 9.28867 124.613 12.7064V28.9145C124.613 31.9758 124.806 32.1225 127.072 32.1225H131.348C133.658 32.1225 133.807 31.9548 133.807 28.9145V12.6854C133.807 9.3935 133.487 9.16286 130.857 8.91125V7.82092H140.179V8.93221C137.314 9.16286 137.228 9.41447 137.228 12.7064V28.9145C137.228 31.9758 137.421 32.1225 139.687 32.1225H143.964C146.23 32.1225 146.422 31.9338 146.422 28.9145V12.6854C146.422 9.30963 146.102 9.16286 143.151 8.91125V7.82092H153.158V8.93221C150.1 9.16286 149.844 9.37254 149.844 12.7064V28.6629C149.844 32.0387 150.164 32.2693 153.521 32.5209V33.6322L117.921 33.5903Z" fill="white"/>
<path d="M174.646 33.5903V32.479C177.746 32.2483 178.11 32.0386 178.11 28.6209V18.2838C178.11 16.9838 178.11 14.7193 178.302 10.9032H178.131L165.302 31.6612C165.026 32.1159 164.899 32.643 164.939 33.1709V33.6112H157.99V32.479C161.047 32.2483 161.389 31.9548 161.389 28.2854V12.5387C161.389 9.41447 161.069 9.16286 157.99 8.93221V7.82092H168.231V8.93221C165.195 9.16286 164.81 9.41447 164.81 12.4967V22.1628C164.81 23.987 164.81 26.0419 164.639 29.9838L177.319 9.51931C177.599 9.1407 177.756 8.68729 177.768 8.21931V7.82092H184.995V8.93221C181.937 9.16286 181.574 9.49834 181.574 13.0209V28.6419C181.574 32.0596 181.937 32.2483 184.995 32.4999V33.6112L174.646 33.5903Z" fill="white"/>
<path d="M203.874 33.5903V32.479C206.376 32.2064 206.654 31.85 205.884 30.529C204.879 28.8935 203.062 25.9371 200.518 22.1419C198.572 25.0774 196.925 27.8242 195.643 30.1516C194.68 31.85 194.873 32.2483 197.588 32.5629V33.6742H188.33V32.479C189.243 32.4904 190.147 32.2915 190.968 31.8982C191.788 31.5049 192.503 30.9282 193.055 30.2145C194.018 28.9145 196.027 26.1467 199.62 20.7371C197.481 17.4032 195.621 14.4467 194.21 12.35C192.521 9.77092 191.944 9.3306 189.078 9.01608V7.82092H198.957V8.93221C196.541 9.20479 196.455 9.56125 197.054 10.5887C198.379 12.8532 199.919 15.1596 201.694 17.8016C203.383 15.2225 204.601 13.3145 205.649 11.3854C206.697 9.45641 206.462 9.28866 203.746 8.93221V7.82092H212.983V8.93221C211.86 8.89642 210.748 9.16276 209.768 9.70238C208.788 10.242 207.977 11.0343 207.424 11.9935C206.569 13.1467 205.286 15.0129 202.506 19.1016C204.644 22.5193 206.953 25.958 208.92 28.8516C210.888 31.7451 211.7 32.2274 214.501 32.5V33.6112L203.874 33.5903Z" fill="white"/>
<path d="M239.967 33.5903V32.479C243.238 32.1644 243.388 31.9548 243.366 27.7612L243.238 11.5741H243.067L233.231 33.3177H232.376L223.396 12.1403L222.797 23.4419C222.626 26.6919 222.626 28.4322 222.669 30.0257C222.669 31.9338 223.717 32.1225 226.389 32.479V33.5903H216.981V32.479C219.312 32.2064 220.125 31.7661 220.402 30.1096C220.68 28.4532 220.851 26.9854 221.172 22.8548L221.685 14.5935C222.049 9.43544 221.856 9.2677 218.179 8.91124V7.82092H224.807L234.001 27.6564L243.281 7.82092H250.144V8.93221C246.595 9.24673 246.317 9.3306 246.424 13.4193L246.83 27.7822C246.958 31.9757 247.065 32.1854 250.593 32.4999V33.6112L239.967 33.5903Z" fill="white"/>
<path d="M271.633 33.5903V32.479C274.733 32.2483 275.097 32.0386 275.097 28.6209V18.2838C275.097 16.9838 275.097 14.7193 275.289 10.9032H275.14L262.311 31.6612C262.034 32.1159 261.907 32.643 261.947 33.1709V33.6112H254.891V32.479C257.949 32.2483 258.291 31.9548 258.291 28.2854V12.5387C258.291 9.41447 257.97 9.16286 254.891 8.93221V7.82092H265.069V8.93221C262.033 9.16286 261.648 9.41447 261.648 12.4967V22.1628C261.648 23.987 261.648 26.0419 261.477 29.9838L274.156 9.51931C274.437 9.1407 274.593 8.68729 274.605 8.21931V7.82092H281.832V8.93221C278.774 9.16286 278.411 9.49834 278.411 13.0209V28.6419C278.411 32.0596 278.774 32.2483 281.832 32.4999V33.6112L271.633 33.5903Z" fill="white"/>
<path d="M314.374 8.93221C311.06 9.20479 310.739 9.41447 310.739 12.7064V28.7257C310.739 32.0596 311.06 32.2483 314.331 32.4999V33.6112H303.512V32.479C306.933 32.2483 307.297 32.0386 307.297 28.7048V20.779H293.549V28.7048C293.549 31.9967 293.869 32.2274 297.183 32.479V33.5903H286.493V32.479C289.721 32.2483 290.042 32.0386 290.042 28.7048V12.6854C290.042 9.35157 289.721 9.20479 286.407 8.91124V7.82092H296.863V8.93221C293.805 9.20479 293.463 9.41447 293.463 12.7064V19.1225H307.211V12.6854C307.211 9.3935 306.891 9.20479 303.748 8.91124V7.82092H314.289L314.374 8.93221Z" fill="white"/>
<path d="M389.787 33.5903V32.479C393.016 32.2483 393.336 32.0806 393.336 28.5999V11.8258C393.336 9.51931 393.144 9.20479 390.92 9.20479H383.287C381.021 9.20479 380.785 9.51931 380.785 12.0145V28.5999C380.785 32.0177 381.149 32.2483 384.335 32.479V33.5903H373.836V32.479C377.022 32.2483 377.343 32.0387 377.343 28.5999V12.8112C377.343 9.3306 377.022 9.16286 373.879 8.93221V7.82092H400.264V8.93221C397.121 9.16286 396.757 9.37254 396.757 12.8112V28.5999C396.757 32.1016 397.121 32.2483 400.307 32.479V33.5903H389.787Z" fill="white"/>
<path d="M420.534 33.5903V32.479C423.078 32.1645 423.441 31.85 422.907 30.3823C422.372 28.9145 421.581 26.6919 420.769 24.2806H412.216C411.575 26.0629 410.955 27.7403 410.442 29.3968C409.565 31.8919 409.928 32.2903 412.943 32.5629V33.6742H404.177V32.479C406.721 32.1226 407.277 31.8919 408.688 28.3903L417.048 7.56934L418.31 7.21289C420.812 14.0274 423.527 21.5758 426.093 28.4742C427.376 31.8919 427.91 32.2484 430.54 32.479V33.5903H420.534ZM416.642 12.371C415.359 15.7887 414.055 19.2274 412.858 22.4774H420.277L416.642 12.371Z" fill="white"/>
<path d="M445.208 7.82098C447.59 7.64773 449.966 8.22832 451.986 9.47743C452.856 10.1306 453.549 10.9818 454.008 11.9573C454.466 12.9329 454.675 14.0033 454.616 15.0758C454.619 17.1628 453.804 19.1709 452.339 20.6851C450.875 22.1993 448.873 23.1037 446.747 23.2113C446.142 23.2512 445.535 23.2512 444.93 23.2113L441.915 22.4565V28.7468C441.915 32.1226 442.279 32.3113 445.914 32.5629V33.6742H434.966V32.479C438.195 32.2484 438.516 31.9339 438.516 28.621V12.7694C438.516 9.28872 438.195 9.12098 435.202 8.9113V7.82098H445.208ZM441.915 21.1355C442.863 21.4625 443.861 21.6256 444.866 21.6178C447.496 21.6178 450.724 20.2339 450.724 15.1807C450.809 14.3699 450.71 13.5508 450.435 12.7816C450.161 12.0124 449.717 11.3118 449.136 10.7295C448.554 10.1473 447.849 9.6976 447.071 9.41237C446.292 9.12713 445.459 9.01334 444.631 9.07904C443.842 9.0018 443.049 9.17057 442.364 9.5613C442.044 9.83388 441.915 10.3161 441.915 11.4274V21.1355Z" fill="white"/>
<path d="M481.364 13.9645C481.175 12.7195 480.739 11.5228 480.081 10.442C479.44 9.49842 478.756 9.20487 475.805 9.20487H472.94V28.7258C472.94 31.85 473.26 32.2484 477.088 32.5V33.6113H465.435V32.4791C469.112 32.2484 469.433 31.85 469.433 28.7049V9.20487H466.931C463.575 9.20487 462.783 9.51938 462.249 10.442C461.645 11.5469 461.212 12.7342 460.966 13.9645H459.79C459.982 11.5742 460.196 8.99519 460.282 6.81454H461.158C461.714 7.71616 462.249 7.80003 463.297 7.80003H479.247C479.663 7.85996 480.087 7.79845 480.468 7.62318C480.848 7.44791 481.167 7.16666 481.385 6.81454H482.241C482.241 8.63874 482.433 11.5323 482.647 13.8387L481.364 13.9645Z" fill="white"/>
<path d="M514.377 8.93221C511.063 9.20479 510.742 9.41447 510.742 12.7064V28.7257C510.742 32.0596 511.063 32.2483 514.334 32.4999V33.6112H503.515V32.479C506.936 32.2483 507.3 32.0386 507.3 28.7048V20.779H493.53V28.7048C493.53 31.9967 493.851 32.2274 497.165 32.479V33.5903H486.474V32.479C489.703 32.2483 490.024 32.0386 490.024 28.7048V12.6854C490.024 9.35157 489.703 9.20479 486.389 8.91124V7.82092H496.844V8.93221C493.787 9.20479 493.466 9.41447 493.466 12.7064V19.1225H507.236V12.6854C507.236 9.3935 506.915 9.20479 503.772 8.91124V7.82092H514.313L514.377 8.93221Z" fill="white"/>
<path d="M539.286 27.3211C539.051 28.6211 538.239 32.3533 537.875 33.6114H518.418V32.4791C522.096 32.2065 522.416 31.892 522.416 28.663V12.8952C522.416 9.33073 522.096 9.20492 518.953 8.93234V7.82105H536.956C536.956 8.80653 537.148 11.5114 537.277 13.5243L536.101 13.713C535.883 12.5081 535.449 11.3509 534.818 10.2952C534.262 9.45653 533.171 9.18395 530.263 9.18395H527.206C525.944 9.18395 525.88 9.18395 525.88 10.463V19.4791H529.579C533.214 19.4791 533.406 19.1646 533.855 16.5017H535.031V24.113H533.855C533.321 21.2614 533.043 21.0098 529.579 21.0098H525.752V28.5162C525.752 30.3823 525.987 31.2211 526.714 31.7243C528.076 32.2327 529.543 32.4125 530.99 32.2485C534.048 32.2485 535.267 31.934 536.079 30.9065C536.962 29.7905 537.628 28.5256 538.046 27.1743L539.286 27.3211ZM527.078 4.08879C527.106 4.35189 527.078 4.61791 526.994 4.86958C526.911 5.12125 526.775 5.35295 526.594 5.54963C526.414 5.74631 526.193 5.90358 525.947 6.01124C525.7 6.11889 525.434 6.17453 525.164 6.17453C524.894 6.17453 524.627 6.11889 524.381 6.01124C524.134 5.90358 523.914 5.74631 523.733 5.54963C523.553 5.35295 523.417 5.12125 523.333 4.86958C523.25 4.61791 523.222 4.35189 523.25 4.08879C523.222 3.82569 523.25 3.55967 523.333 3.308C523.417 3.05633 523.553 2.82463 523.733 2.62795C523.914 2.43127 524.134 2.274 524.381 2.16634C524.627 2.05869 524.894 2.00305 525.164 2.00305C525.434 2.00305 525.7 2.05869 525.947 2.16634C526.193 2.274 526.414 2.43127 526.594 2.62795C526.775 2.82463 526.911 3.05633 526.994 3.308C527.078 3.55967 527.106 3.82569 527.078 4.08879ZM534.753 4.08879C534.759 4.33736 534.714 4.58454 534.621 4.81581C534.528 5.04708 534.389 5.25778 534.211 5.43554C534.034 5.61329 533.822 5.75451 533.589 5.8509C533.355 5.9473 533.104 5.99692 532.851 5.99685C532.329 5.99685 531.828 5.79362 531.46 5.43185C531.091 5.07009 530.883 4.57943 530.883 4.06782C530.883 3.55621 531.091 3.06555 531.46 2.70379C531.828 2.34203 532.329 2.13879 532.851 2.13879C533.102 2.1415 533.351 2.19317 533.582 2.2908C533.813 2.38843 534.023 2.53008 534.198 2.70755C534.373 2.88502 534.51 3.09478 534.602 3.32468C534.693 3.55457 534.738 3.80004 534.732 4.04685L534.753 4.08879Z" fill="white"/>
<path d="M553.419 7.82098C555.801 7.64773 558.177 8.22832 560.197 9.47743C561.067 10.1306 561.761 10.9818 562.219 11.9573C562.677 12.9329 562.886 14.0033 562.827 15.0758C562.83 17.1628 562.015 19.1709 560.55 20.6851C559.086 22.1993 557.084 23.1037 554.959 23.2113C554.354 23.2512 553.747 23.2512 553.141 23.2113L550.148 22.4565V28.7468C550.148 32.1226 550.512 32.3113 554.146 32.5629V33.6742H543.199V32.479C546.428 32.2484 546.749 31.9339 546.749 28.621V12.7694C546.749 9.28872 546.428 9.12098 543.434 8.9113V7.82098H553.419ZM550.148 21.1565C551.096 21.483 552.094 21.6462 553.099 21.6387C555.729 21.6387 558.957 20.2549 558.957 15.2016C559.041 14.3908 558.943 13.5718 558.668 12.8026C558.394 12.0333 557.95 11.3328 557.368 10.7505C556.787 10.1683 556.082 9.71857 555.303 9.43333C554.525 9.1481 553.692 9.0343 552.864 9.10001C552.075 9.02277 551.282 9.19154 550.597 9.58227C550.276 9.85485 550.148 10.3371 550.148 11.4484V21.1565Z" fill="white"/>
<path d="M567.403 33.5903V32.479C570.482 32.2483 570.803 31.9967 570.803 28.6V12.7693C570.803 9.3935 570.482 9.16286 567.489 8.91125V7.82092H577.773V8.93221C574.545 9.16286 574.181 9.3306 574.181 12.7903V18.4306C575.521 18.2548 576.871 18.1777 578.222 18.2C584.637 18.2 587.502 21.0935 587.502 25.35C587.603 26.6842 587.31 28.0186 586.658 29.1937C586.006 30.3688 585.022 31.3347 583.824 31.9758C581.391 33.229 578.658 33.8157 575.913 33.6742L567.403 33.5903ZM574.181 28.7467C574.181 31.2838 574.588 32.1645 577.645 32.1645C580.703 32.1645 583.546 30.4241 583.546 25.7274C583.546 21.0306 580.916 19.4371 576.854 19.4371C575.961 19.4458 575.068 19.5018 574.181 19.6048V28.7467ZM587.737 33.5903V32.479C590.795 32.2903 591.137 31.85 591.137 28.6629V12.6854C591.137 9.58221 590.816 9.16286 587.737 8.91125V7.82092H598V8.93221C594.9 9.16286 594.579 9.56125 594.579 12.7064V28.6838C594.579 31.8919 594.9 32.2903 597.979 32.5V33.6112L587.737 33.5903Z" fill="white"/>
<path d="M95.7911 60.9952V60.3661C97.1595 60.1984 97.352 60.0306 97.074 59.1919C96.796 58.3532 96.3684 57.221 95.8766 55.921H91.2582C90.9161 56.8855 90.5954 57.7661 90.3175 58.6677C89.8471 60.0097 90.0395 60.2194 91.6645 60.3661V60.9532H86.9819V60.3661C88.3504 60.1774 88.6497 60.0516 89.398 58.2693L93.8668 47.1145L94.5296 46.9258C95.8766 50.5742 97.3092 54.621 98.8059 58.3113C99.4901 60.1355 99.7681 60.4081 101.179 60.4081V60.9952H95.7911ZM93.653 49.6306L91.6217 55.0403H95.5345L93.653 49.6306Z" fill="white"/>
<path d="M114.607 50.2807C114.487 49.6354 114.248 49.0172 113.901 48.4565C113.602 48.0371 112.918 47.9113 111.571 47.9113H110.181C109.368 47.9113 109.304 47.9113 109.304 48.6871V58.2694C109.304 60.0936 109.475 60.2194 111.442 60.3661V60.9323H105.626V60.3661C107.273 60.2403 107.444 60.1145 107.444 58.2694V49.8823C107.444 48.0371 107.273 47.9532 105.712 47.7855V47.1984H115.013C115.013 47.5758 115.141 49.2952 115.248 50.2178L114.607 50.2807Z" fill="white"/>
<path d="M130.429 57.6403C130.301 58.3323 129.873 60.3452 129.681 60.9952H119.247V60.3661C121.214 60.2194 121.385 60.0516 121.385 58.2694V49.8823C121.385 47.9742 121.214 47.9113 119.525 47.7855V47.1984H129.168C129.168 47.7226 129.274 49.1694 129.339 50.2597L128.719 50.3645C128.603 49.7213 128.372 49.1035 128.034 48.5403C127.735 48.1 127.158 47.9532 125.597 47.9532H123.951C123.288 47.9532 123.245 47.9532 123.245 48.6242V53.4468H125.276C127.222 53.4468 127.414 53.279 127.607 51.8532H128.227V55.921H127.607C127.329 54.3903 127.179 54.2645 125.298 54.2645H123.33V58.2694C123.33 59.2758 123.459 59.7161 123.844 59.9887C124.56 60.2517 125.329 60.3451 126.089 60.2613C127.735 60.2613 128.334 60.0936 128.804 59.5484C129.291 58.9213 129.654 58.2101 129.873 57.4516L130.429 57.6403Z" fill="white"/>
<path d="M149.48 47.7855C147.705 47.9323 147.534 48.0371 147.534 49.8823V58.4581C147.534 60.2403 147.705 60.3452 149.459 60.5548V61.1419H143.664V60.3661C145.503 60.2403 145.802 60.1355 145.802 58.2694V54.0758H138.297V58.2694C138.297 60.0306 138.468 60.1565 140.243 60.3661V60.9532H134.598V60.3661C136.33 60.2403 136.501 60.1355 136.501 58.2694V49.8823C136.501 48.1 136.33 48.0161 134.556 47.7855V47.1984H140.158V47.7855C138.511 47.9323 138.34 48.0371 138.34 49.8823V53.2371H145.717V49.8823C145.717 48.121 145.546 48.0161 143.857 47.7855V47.1984H149.501L149.48 47.7855Z" fill="white"/>
<path d="M165.281 50.4694C165.182 49.8023 164.949 49.161 164.597 48.5823C164.255 48.0791 163.891 47.9323 162.266 47.9323H160.727V58.4162C160.727 60.0936 160.898 60.3033 162.865 60.513V61.1001H156.664V60.3662C158.631 60.2404 158.802 60.0307 158.802 58.2694V47.7856H157.541C155.745 47.7856 155.403 47.9533 155.039 48.4356C154.716 49.0276 154.486 49.6637 154.355 50.3227H153.735C153.842 49.0436 153.949 47.6598 153.991 46.5065H154.419C154.718 46.9888 154.996 47.0307 155.616 47.0307H164.169C164.386 47.0554 164.606 47.0192 164.802 46.9265C164.999 46.8337 165.165 46.6881 165.281 46.5065H165.73C165.73 47.492 165.837 49.0436 165.944 50.2598L165.281 50.4694Z" fill="white"/>
<path d="M183.071 57.4935C182.742 58.6062 182.328 59.6927 181.83 60.7435C180.53 61.076 179.196 61.2659 177.854 61.3097C176.863 61.3978 175.865 61.2811 174.924 60.967C173.983 60.6528 173.12 60.1483 172.39 59.4861C171.66 58.8239 171.081 58.0188 170.688 57.1229C170.296 56.227 170.1 55.2603 170.113 54.2855C170.113 49.8193 173.62 46.8629 178.431 46.8629C179.724 46.909 181.008 47.0989 182.258 47.429C182.429 48.6451 182.557 49.5258 182.686 50.6371L182.044 50.7839C181.979 50.2992 181.816 49.8322 181.565 49.4099C181.313 48.9876 180.979 48.6184 180.581 48.3238C180.183 48.0293 179.73 47.8152 179.247 47.6939C178.764 47.5727 178.261 47.5468 177.768 47.6177C176.972 47.6415 176.189 47.8273 175.47 48.1633C174.75 48.4993 174.11 48.9782 173.59 49.5695C173.069 50.1609 172.679 50.852 172.445 51.5988C172.211 52.3456 172.138 53.132 172.23 53.908C172.23 57.871 174.604 60.5968 177.896 60.5968C180.034 60.5968 181.275 59.4226 182.344 57.3048L183.071 57.4935Z" fill="white"/>
<path d="M199.192 50.4694C199.092 49.8025 198.86 49.1613 198.508 48.5823C198.166 48.0791 197.802 47.9323 196.177 47.9323H194.638V58.4162C194.638 60.0936 194.809 60.3033 196.776 60.513V61.1001H190.575V60.3662C192.542 60.2404 192.713 60.0307 192.713 58.2694V47.7856H191.366C189.57 47.7856 189.228 47.9533 188.865 48.4356C188.542 49.0276 188.311 49.6637 188.181 50.3227H187.561C187.667 49.0436 187.774 47.6598 187.817 46.5065H188.245C188.544 46.9888 188.822 47.0307 189.442 47.0307H197.995C198.212 47.0554 198.431 47.0192 198.628 46.9265C198.825 46.8337 198.991 46.6881 199.107 46.5065H199.556C199.556 47.492 199.662 49.0436 199.769 50.2598L199.192 50.4694Z" fill="white"/>
<path d="M211.251 53.5517C213.389 53.8662 215.079 54.8098 215.079 56.9275C215.066 57.6053 214.858 58.2657 214.48 58.8331C214.102 59.4005 213.568 59.8519 212.94 60.1356C211.611 60.7703 210.141 61.066 208.664 60.9953H203.981V60.3662C205.842 60.2404 205.97 60.1146 205.97 58.2694V49.8823C205.97 48.121 205.97 47.9952 204.152 47.7855V47.1984H209.712C210.845 47.095 211.982 47.3445 212.962 47.9114C213.349 48.1864 213.662 48.5496 213.874 48.9696C214.087 49.3896 214.192 49.854 214.181 50.3226C214.141 51.0978 213.83 51.8358 213.3 52.4125C212.771 52.9892 212.055 53.3693 211.273 53.4888L211.251 53.5517ZM208.856 53.3001C211.23 53.3001 212.235 52.3565 212.235 50.5743C212.278 50.1904 212.231 49.8021 212.097 49.4388C211.964 49.0755 211.748 48.7469 211.465 48.4779C211.183 48.209 210.841 48.0068 210.467 47.8868C210.093 47.7668 209.695 47.7322 209.305 47.7855C208.881 47.7615 208.457 47.8333 208.065 47.9952C207.873 48.121 207.787 48.3517 207.787 49.0646V53.2581L208.856 53.3001ZM207.787 58.2694C207.787 59.8001 208.194 60.1985 209.583 60.1985C210.021 60.2447 210.464 60.1971 210.881 60.0589C211.298 59.9206 211.68 59.6951 211.999 59.3979C212.318 59.1007 212.568 58.7389 212.73 58.3377C212.893 57.9365 212.965 57.5054 212.94 57.0743C212.94 54.9775 211.422 53.9291 208.792 53.9291H207.787V58.2694Z" fill="white"/>
<path d="M234.236 53.9081C234.299 54.8693 234.157 55.8328 233.82 56.7375C233.483 57.6422 232.959 58.4686 232.279 59.1642C231.6 59.8599 230.781 60.4098 229.874 60.7791C228.967 61.1484 227.991 61.3291 227.009 61.3097C226.071 61.313 225.142 61.131 224.277 60.7747C223.412 60.4183 222.629 59.8949 221.975 59.2355C221.32 58.5762 220.808 57.7944 220.468 56.9368C220.128 56.0792 219.968 55.1633 219.996 54.2436C219.953 53.2842 220.109 52.3262 220.456 51.428C220.802 50.5298 221.332 49.7103 222.012 49.0196C222.692 48.3289 223.509 47.7814 224.413 47.4106C225.316 47.0398 226.287 46.8534 227.266 46.8629C228.2 46.8625 229.124 47.046 229.984 47.4026C230.844 47.7591 231.622 48.2814 232.272 48.9386C232.922 49.5957 233.431 50.3742 233.768 51.2278C234.106 52.0815 234.265 52.993 234.236 53.9081ZM222.199 53.6355C222.199 57.6194 224.337 60.5339 227.48 60.5339C229.875 60.5339 232.034 58.563 232.034 54.4742C232.034 49.9871 229.661 47.6178 226.817 47.6178C224.401 47.6387 222.199 49.6726 222.199 53.6355Z" fill="white"/>
<path d="M246.659 51.0145C246.809 49.9242 246.937 48.9177 247.108 47.9113C248.562 47.3332 250.098 46.9795 251.662 46.8629C252.581 46.8203 253.498 46.9674 254.354 47.2946C255.211 47.6218 255.988 48.1219 256.635 48.7623C257.282 49.4028 257.785 50.1694 258.111 51.0125C258.436 51.8556 258.578 52.7563 258.526 53.6564C258.526 60.0936 253.8 61.3097 251.363 61.3097C249.799 61.3711 248.27 60.8463 247.087 59.8419C246.559 59.4182 246.221 58.8085 246.146 58.1436C246.128 57.9497 246.186 57.7565 246.31 57.6041C246.433 57.4517 246.612 57.352 246.809 57.3258C247.129 57.3258 247.429 57.6194 247.643 58.0806C247.945 58.8586 248.495 59.5199 249.212 59.9658C249.929 60.4117 250.773 60.6184 251.62 60.5548C254.292 60.5548 256.473 58.2065 256.495 54.2645L248.968 54.4323V53.2371L256.473 53.4258C256.302 49.2322 254.143 47.6597 251.577 47.6597C249.011 47.6597 247.963 49.4839 247.3 51.1403L246.659 51.0145Z" fill="white"/>
<path d="M269.323 60.9951V60.366C270.948 60.2402 271.119 60.1354 271.119 58.2693V48.9387C271.119 48.0161 271.119 47.9322 270.307 47.9322H268.04C267.164 47.9322 267.121 47.9322 267.121 48.5403C267.121 54.2854 266.244 58.2483 264.705 60.2193C264.149 60.9531 263.593 61.2886 263.144 61.2886C262.755 61.2848 262.37 61.2064 262.011 61.058V60.6806C262.979 60.1039 263.758 59.267 264.256 58.2693C265.637 55.4052 266.269 52.2489 266.095 49.0854C266.095 47.9741 265.731 47.7854 263.956 47.6806V47.0935H274.647V47.7854C273.001 47.9112 272.83 48.079 272.83 49.6516V58.2693C272.83 60.1144 273.001 60.2193 274.647 60.366V60.9531L269.323 60.9951Z" fill="white"/>
<path d="M288.396 60.9952V60.3661C290.063 60.2403 290.256 60.1355 290.256 58.2694V52.7968C290.256 52.1048 290.256 50.8887 290.363 48.8548L283.521 59.9677C283.376 60.2082 283.309 60.486 283.328 60.7645V60.9952H279.416V60.3661C281.062 60.2403 281.233 60.0936 281.233 58.1645V49.7774C281.233 48.1 281.062 47.9742 279.416 47.8484V47.2613H284.868V47.7855C283.243 47.9113 283.029 48.0371 283.029 49.6936V54.8726C283.029 55.8581 283.029 56.9694 283.029 59.0661L289.807 48.1C289.956 47.8984 290.038 47.6569 290.042 47.4081V47.1984H293.912V47.7855C292.266 47.9113 292.073 48.079 292.073 49.8823V58.2694C292.073 60.0936 292.266 60.1984 293.912 60.3661V60.9532L288.396 60.9952Z" fill="white"/>
<path d="M309.777 50.4694C309.678 49.8023 309.445 49.161 309.093 48.5823C308.751 48.0791 308.387 47.9323 306.762 47.9323H305.223V58.4162C305.223 60.0936 305.394 60.3033 307.361 60.513V61.1001H301.16V60.3662C303.127 60.2404 303.298 60.0307 303.298 58.2694V47.7856H301.951C300.155 47.7856 299.813 47.9533 299.45 48.4356C299.127 49.0276 298.896 49.6637 298.766 50.3227H298.146C298.252 49.0436 298.359 47.6598 298.402 46.5065H298.83C299.129 46.9888 299.407 47.0307 300.027 47.0307H308.58C308.797 47.0554 309.016 47.0192 309.213 46.9265C309.41 46.8337 309.576 46.6881 309.692 46.5065H310.141C310.141 47.492 310.247 49.0436 310.354 50.2598L309.777 50.4694Z" fill="white"/>
<path d="M329.533 47.7855C327.759 47.9323 327.588 48.0371 327.588 49.8823V58.4581C327.588 60.2403 327.759 60.3452 329.512 60.5548V61.1419H323.718V60.3661C325.556 60.2403 325.749 60.1355 325.749 58.2694V54.0758H318.372V58.2694C318.372 60.0306 318.543 60.1565 320.318 60.3661V60.9532H314.631V60.3661C316.363 60.2403 316.534 60.1355 316.534 58.2694V49.8823C316.534 48.1 316.363 48.0161 314.588 47.7855V47.1984H320.19V47.7855C318.543 47.9323 318.372 48.0371 318.372 49.8823V53.2371H325.749V49.8823C325.749 48.121 325.578 48.0161 323.889 47.7855V47.1984H329.533V47.7855Z" fill="white"/>
<path d="M348.221 53.9081C348.284 54.8693 348.142 55.8328 347.805 56.7375C347.468 57.6422 346.943 58.4686 346.264 59.1642C345.585 59.8599 344.766 60.4098 343.859 60.7791C342.952 61.1484 341.976 61.3291 340.994 61.3097C340.056 61.313 339.127 61.131 338.262 60.7747C337.397 60.4183 336.614 59.8949 335.959 59.2355C335.305 58.5762 334.793 57.7944 334.453 56.9368C334.113 56.0792 333.953 55.1633 333.981 54.2436C333.938 53.2842 334.094 52.3262 334.44 51.428C334.787 50.5298 335.317 49.7103 335.997 49.0196C336.677 48.3289 337.494 47.7814 338.397 47.4106C339.301 47.0398 340.272 46.8534 341.251 46.8629C342.185 46.8625 343.109 47.046 343.969 47.4026C344.829 47.7591 345.607 48.2814 346.257 48.9386C346.907 49.5957 347.416 50.3742 347.753 51.2278C348.091 52.0815 348.25 52.993 348.221 53.9081ZM336.184 53.6355C336.184 57.6194 338.322 60.5339 341.465 60.5339C343.859 60.5339 346.019 58.563 346.019 54.4742C346.019 49.9871 343.646 47.6178 340.802 47.6178C338.386 47.6387 336.184 49.6726 336.184 53.6355Z" fill="white"/>
<path d="M361.884 60.9951V60.3661C363.552 60.2403 363.744 60.1354 363.744 58.2693V52.7967C363.744 52.1048 363.744 50.8887 363.851 48.8548L357.009 59.9677C356.864 60.2082 356.797 60.4859 356.817 60.7645V60.9951H353.011V60.3661C354.657 60.2403 354.828 60.0935 354.828 58.1645V49.7774C354.828 48.0999 354.657 47.9741 353.011 47.8483V47.2612H358.463V47.7854C356.838 47.9112 356.624 48.037 356.624 49.6935V54.8725C356.624 55.858 356.624 56.9693 356.624 59.0661L363.402 48.0999C363.551 47.8983 363.633 47.6568 363.637 47.408V47.1983H367.507V47.7854C365.861 47.9112 365.669 48.079 365.669 49.8822V58.2693C365.669 60.0935 365.861 60.1983 367.507 60.3661V60.9532L361.884 60.9951ZM357.608 44.4516C357.601 44.3333 357.62 44.2149 357.665 44.1047C357.709 43.9945 357.777 43.8951 357.865 43.8133C357.952 43.7316 358.057 43.6694 358.171 43.6312C358.286 43.593 358.407 43.5795 358.527 43.5919C358.636 43.5963 358.743 43.6235 358.841 43.6717C358.939 43.7198 359.025 43.7878 359.094 43.8711C359.162 43.9544 359.212 44.0512 359.24 44.1549C359.268 44.2586 359.272 44.3668 359.254 44.4725C359.254 45.0387 359.682 45.3532 360.409 45.3532C361.136 45.3532 361.563 45.0177 361.542 44.4725C361.523 44.3634 361.529 44.2516 361.559 44.1449C361.589 44.0383 361.643 43.9394 361.716 43.8554C361.79 43.7714 361.881 43.7042 361.984 43.6587C362.087 43.6131 362.199 43.5903 362.312 43.5919C362.42 43.5972 362.527 43.6238 362.625 43.6702C362.723 43.7166 362.81 43.7818 362.882 43.862C362.954 43.9421 363.008 44.0357 363.043 44.1369C363.077 44.2382 363.09 44.3452 363.081 44.4516C363.081 45.479 362.012 46.1709 360.409 46.1709C358.805 46.1709 357.672 45.458 357.672 44.4516H357.608Z" fill="white"/>
<path d="M394.384 47.7855C392.61 47.9323 392.439 48.0371 392.439 49.8823V58.4581C392.439 60.2403 392.61 60.3452 394.363 60.5548V61.1419H388.462V60.3661C390.3 60.2403 390.6 60.1355 390.6 58.2694V54.0758H383.223V58.2694C383.223 60.0306 383.394 60.1565 385.169 60.3661V60.9532H379.481V60.3661C381.213 60.2403 381.384 60.1355 381.384 58.2694V49.8823C381.384 48.1 381.213 48.0161 379.438 47.7855V47.1984H385.04V47.7855C383.394 47.9323 383.223 48.0371 383.223 49.8823V53.2371H390.6V49.8823C390.6 48.121 390.429 48.0161 388.74 47.7855V47.1984H394.384V47.7855Z" fill="white"/>
<path d="M409.843 57.6403C409.714 58.3323 409.287 60.3452 409.094 60.9952H398.682V60.3661C400.649 60.2194 400.82 60.0516 400.82 58.2694V49.8823C400.82 47.9742 400.649 47.9113 398.96 47.7855V47.1984H408.603C408.603 47.7226 408.709 49.1694 408.774 50.2597L408.154 50.3645C408.038 49.7214 407.806 49.1037 407.469 48.5403C407.17 48.1 406.593 47.9532 405.032 47.9532H403.428C402.765 47.9532 402.723 47.9532 402.723 48.6242V53.4468H404.861C406.806 53.4468 406.999 53.279 407.191 51.8532H407.705V55.921H407.084C406.807 54.3903 406.657 54.2645 404.775 54.2645H402.637V58.2694C402.637 59.2758 402.765 59.7161 403.15 59.9887C403.866 60.2517 404.636 60.3451 405.395 60.2613C407.042 60.2613 407.64 60.0936 408.111 59.5484C408.59 58.9197 408.946 58.2085 409.158 57.4516L409.843 57.6403Z" fill="white"/>
<path d="M425.858 64.5597H425.216L424.96 62.6726C424.789 61.2468 424.468 60.9951 423.399 60.9951H416.599C415.359 60.9951 415.124 61.3516 414.761 62.7564L414.269 64.5597H413.627L413.734 60.2193H414.632C414.779 60.241 414.928 60.2106 415.054 60.1337C415.179 60.0568 415.272 59.9384 415.317 59.8C416.729 56.4258 417.386 52.7931 417.241 49.1484C417.241 48.1419 416.942 48.0371 416.001 47.8903L415.146 47.7645V47.1774H426.178V47.7855C424.511 47.9113 424.34 48.0371 424.34 49.8822V59.0451C424.34 60.0516 424.447 60.1564 425.088 60.1564H426.35L425.858 64.5597ZM422.501 49.4C422.501 48.0161 422.501 47.9322 421.667 47.9322H419.165C418.331 47.9322 418.267 47.9322 418.267 48.6032C418.355 52.3241 417.827 56.0344 416.706 59.5903C416.557 60.0097 416.578 60.2193 417.113 60.2193H421.175C422.287 60.2193 422.522 60.0097 422.522 58.6468L422.501 49.4Z" fill="white"/>
<path d="M438.024 53.5516C440.162 53.8661 441.851 54.8097 441.851 56.9274C441.838 57.6052 441.631 58.2656 441.253 58.833C440.874 59.4004 440.341 59.8518 439.713 60.1355C438.384 60.7702 436.913 61.0659 435.437 60.9951H430.668V60.3661C432.529 60.2403 432.657 60.1145 432.657 58.2693V49.8823C432.657 48.121 432.657 47.9952 430.84 47.7855V47.1984H436.399C437.532 47.0935 438.669 47.3431 439.649 47.9113C440.036 48.1863 440.349 48.5495 440.561 48.9695C440.774 49.3896 440.879 49.8539 440.868 50.3226C440.828 51.0977 440.517 51.8357 439.987 52.4124C439.458 52.9891 438.742 53.3692 437.96 53.4887L438.024 53.5516ZM435.501 53.3C437.874 53.3 438.879 52.3564 438.879 50.5742C438.91 50.2013 438.856 49.8263 438.722 49.4762C438.587 49.1261 438.376 48.8094 438.102 48.5489C437.828 48.2884 437.499 48.0905 437.138 47.9694C436.777 47.8483 436.393 47.807 436.014 47.8484C435.59 47.8244 435.165 47.8961 434.774 48.0581C434.581 48.1839 434.496 48.4145 434.496 49.1274V53.321L435.501 53.3ZM434.496 58.3322C434.496 59.8629 434.902 60.2613 436.292 60.2613C436.739 60.3277 437.196 60.2952 437.63 60.1661C438.063 60.037 438.461 59.8145 438.795 59.515C439.129 59.2155 439.391 58.8466 439.561 58.4351C439.731 58.0237 439.804 57.5802 439.777 57.1371C439.777 55.0403 438.259 53.9919 435.629 53.9919H434.645L434.496 58.3322Z" fill="white"/>
<path d="M455.385 60.9952V60.3661C457.053 60.2403 457.246 60.1355 457.246 58.2694V52.7968C457.246 52.1048 457.246 50.8887 457.352 48.8548L450.468 59.9468C450.323 60.1873 450.256 60.465 450.275 60.7436V60.9742H446.469V60.3661C448.116 60.2403 448.287 60.0936 448.287 58.1645V49.7774C448.287 48.1 448.116 47.9742 446.469 47.8484V47.2613H451.921V47.7855C450.297 47.9113 450.083 48.0371 450.083 49.6936V54.8726C450.083 55.8581 450.083 56.9694 450.083 59.0661L456.882 48.1C457.03 47.8978 457.112 47.6567 457.117 47.4081V47.1984H460.987V47.7855C459.341 47.9113 459.148 48.079 459.148 49.8823V58.2694C459.148 60.0936 459.341 60.1984 460.987 60.3661V60.9532L455.385 60.9952Z" fill="white"/>
<path d="M483.032 60.9952C481.663 60.9952 481.065 60.2613 480.444 59.0452L478.905 56.0049C478.028 54.2016 477.173 53.9081 475.805 53.9081V58.2694C475.805 60.0516 475.997 60.2194 477.644 60.3661V60.9532H472.148V60.3661C473.816 60.2403 473.987 60.0936 473.987 58.2694V54.0758C473.302 53.9877 472.608 54.1362 472.022 54.4959C471.437 54.8556 470.998 55.404 470.78 56.0468C470.203 57.221 469.604 58.5 469.305 59.1081C468.706 60.3242 468.065 61.0581 466.739 61.0581H464.943V60.3661C465.991 60.3661 466.611 60.0097 467.359 58.6258C468.107 57.242 468.663 56.2145 469.069 55.5645C469.308 55.0704 469.648 54.6294 470.067 54.2688C470.486 53.9081 470.976 53.6355 471.507 53.4678C470.509 52.8417 469.755 51.9033 469.369 50.8049C468.428 48.8968 468.043 48.2678 467.081 48.2678H466.653C466.461 48.2858 466.27 48.2304 466.118 48.1132C465.967 47.996 465.868 47.826 465.841 47.6387C465.841 47.1984 466.226 46.7791 466.974 46.7791C467.722 46.7791 468.792 47.3661 469.519 49.0016C469.95 50.2346 470.61 51.3789 471.464 52.3774C471.803 52.7067 472.215 52.9553 472.667 53.1044C473.119 53.2534 473.6 53.2988 474.073 53.2371V49.6936C474.073 48.0161 473.902 47.9113 472.234 47.7855V47.1984H477.729V47.7855C476.083 47.9113 475.89 48.0161 475.89 49.6936V53.321C476.37 53.3799 476.856 53.3333 477.315 53.1846C477.773 53.0359 478.193 52.7888 478.542 52.4613C479.383 51.472 480.022 50.3329 480.423 49.1065C481.171 47.45 482.048 46.8629 483.01 46.8629C483.972 46.8629 484.122 47.2823 484.122 47.7226C484.122 48.1629 483.737 48.3516 483.267 48.3516H482.818C481.856 48.3516 481.428 49.1274 480.68 50.8468C480.279 51.9487 479.53 52.8963 478.542 53.5516C479.078 53.7075 479.574 53.9756 479.995 54.3376C480.416 54.6996 480.752 55.1468 480.979 55.6484C481.364 56.2984 481.941 57.4307 482.668 58.7097C483.395 59.9887 484.058 60.3661 485.084 60.45V61.0371L483.032 60.9952Z" fill="white"/>
<path d="M497.935 60.9952V60.3661C499.603 60.2403 499.795 60.1355 499.795 58.2694V52.7968C499.795 52.1048 499.795 50.8887 499.902 48.8548L493.06 59.9677C492.915 60.2082 492.848 60.486 492.867 60.7645V60.9952H488.955V60.3661C490.601 60.2403 490.772 60.0936 490.772 58.1645V49.7774C490.772 48.1 490.601 47.9742 488.955 47.8484V47.2613H494.407V47.7855C492.782 47.9113 492.568 48.0371 492.568 49.6936V54.8726C492.568 55.8581 492.568 56.9694 492.568 59.0661L499.346 48.1C499.494 47.8978 499.575 47.6567 499.581 47.4081V47.1984H503.451V47.7855C501.805 47.9113 501.612 48.079 501.612 49.8823V58.2694C501.612 60.0936 501.805 60.1984 503.451 60.3661V60.9532L497.935 60.9952Z" fill="white"/>
<path d="M520.065 60.9952V60.3662C521.818 60.1984 521.903 60.0936 521.882 57.8291V49.1694L516.601 60.8065H516.173L511.341 49.4629L511.02 55.5226C511.02 57.263 511.02 58.2065 511.02 59.0452C511.02 59.8839 511.576 60.2194 513.009 60.3662V60.9533H507.984V60.3662C509.245 60.2194 509.673 59.9888 509.823 59.0871C509.972 58.1855 510.058 57.4097 510.229 55.2081L510.528 50.7839C510.721 48.0162 510.528 47.9323 508.647 47.7436V47.1565H512.196L517.114 57.7871L522.096 47.1565H525.774V47.7855C523.871 47.9533 523.635 47.9952 523.785 50.1758L523.999 57.871C523.999 60.1146 524.127 60.2194 526.009 60.4081V60.9952H520.065Z" fill="white"/>
<path d="M544.418 53.9081C544.48 54.8675 544.339 55.8291 544.004 56.7324C543.668 57.6357 543.145 58.461 542.468 59.1564C541.791 59.8517 540.975 60.402 540.07 60.7726C539.166 61.1432 538.193 61.3261 537.213 61.3097C536.273 61.3158 535.341 61.1359 534.473 60.7808C533.606 60.4257 532.82 59.9027 532.164 59.2431C531.507 58.5834 530.993 57.8007 530.651 56.9417C530.31 56.0827 530.149 55.165 530.178 54.2436C530.134 53.2842 530.291 52.3262 530.637 51.428C530.984 50.5298 531.513 49.7103 532.194 49.0196C532.874 48.3289 533.691 47.7814 534.594 47.4106C535.498 47.0398 536.469 46.8534 537.448 46.8629C538.381 46.8625 539.306 47.046 540.166 47.4026C541.025 47.7591 541.804 48.2814 542.454 48.9385C543.104 49.5957 543.613 50.3741 543.95 51.2278C544.288 52.0815 544.447 52.9929 544.418 53.9081ZM532.38 53.6355C532.38 57.6194 534.518 60.5339 537.662 60.5339C540.056 60.5339 542.216 58.5629 542.216 54.4742C542.216 49.9871 539.842 47.6178 536.999 47.6178C534.583 47.6387 532.38 49.6726 532.38 53.6355Z" fill="white"/>
<path d="M562.507 57.4935C562.178 58.6061 561.763 59.6926 561.267 60.7435C559.966 61.0762 558.633 61.266 557.29 61.3097C556.3 61.3978 555.302 61.2811 554.36 60.967C553.419 60.6528 552.556 60.1483 551.826 59.4861C551.096 58.8239 550.517 58.0188 550.124 57.1229C549.732 56.227 549.536 55.2603 549.549 54.2855C549.549 49.8193 553.056 46.8629 557.867 46.8629C559.16 46.909 560.444 47.0989 561.694 47.429C561.865 48.6451 561.994 49.5258 562.122 50.6371L561.48 50.7839C561.415 50.2992 561.252 49.8322 561.001 49.4099C560.75 48.9876 560.415 48.6184 560.017 48.3238C559.62 48.0293 559.166 47.8152 558.683 47.6939C558.2 47.5727 557.697 47.5468 557.204 47.6177C556.408 47.6415 555.625 47.8273 554.906 48.1633C554.187 48.4993 553.546 48.9782 553.026 49.5695C552.505 50.1609 552.115 50.852 551.881 51.5988C551.647 52.3456 551.574 53.132 551.666 53.908C551.666 57.871 554.04 60.5968 557.332 60.5968C559.471 60.5968 560.711 59.4226 561.78 57.3048L562.507 57.4935Z" fill="white"/>
<path d="M578.628 50.4694C578.528 49.8026 578.296 49.1615 577.944 48.5823C577.602 48.0791 577.239 47.9323 575.614 47.9323H574.074V58.4162C574.074 60.0936 574.245 60.3033 576.212 60.513V61.1001H570.204V60.3662C572.171 60.2404 572.342 60.0307 572.342 58.2694V47.7856H570.995C569.199 47.7856 568.857 47.9533 568.494 48.4356C568.171 49.0275 567.94 49.6636 567.81 50.3227H567.189C567.296 49.0436 567.403 47.6598 567.446 46.5065H567.874C568.173 46.9888 568.451 47.0307 569.071 47.0307H577.623C577.84 47.0554 578.06 47.0192 578.257 46.9265C578.454 46.8337 578.619 46.6881 578.735 46.5065H579.184C579.184 47.492 579.291 49.0436 579.398 50.2598L578.628 50.4694Z" fill="white"/>
<path d="M592.505 60.9952V60.3661C594.173 60.2403 594.365 60.1355 594.365 58.2694V52.7968C594.365 52.1048 594.365 50.8887 594.472 48.8548L587.63 59.9677C587.486 60.2082 587.418 60.486 587.438 60.7645V60.9952H583.632V60.3661C585.278 60.2403 585.449 60.0936 585.449 58.1645V49.7774C585.449 48.1 585.278 47.9742 583.632 47.8484V47.2613H589.084V47.7855C587.459 47.9113 587.245 48.0371 587.245 49.6936V54.8726C587.245 55.8581 587.245 56.9694 587.245 59.0661L594.023 48.1C594.171 47.8978 594.253 47.6567 594.258 47.4081V47.1984H598V47.7855C596.354 47.9113 596.161 48.079 596.161 49.8823V58.2694C596.161 60.0936 596.354 60.1984 598 60.3661V60.9532L592.505 60.9952Z" fill="white"/>
<path d="M350.637 33.5903L348.777 31.4935C346.402 33.1495 343.586 34.0896 340.674 34.1983C339.39 34.2298 338.112 34.0106 336.916 33.5534C335.719 33.0963 334.627 32.4103 333.703 31.5354C332.786 30.7029 332.059 29.6897 331.569 28.5624C331.079 27.435 330.837 26.2188 330.859 24.9935C330.859 20.7999 333.318 17.8994 338.236 16.2919C336.926 14.5624 336.141 12.5057 335.97 10.358C335.949 9.51724 336.111 8.68179 336.447 7.90783C336.782 7.13387 337.283 6.43933 337.915 5.87092C339.247 4.67121 341.005 4.03131 342.812 4.08866C344.651 4.04437 346.442 4.6721 347.836 5.84995C348.454 6.36265 348.945 7.00684 349.271 7.73352C349.597 8.46019 349.75 9.25022 349.718 10.0435C349.718 13.2446 347.523 15.6209 343.132 17.1725L343.881 18.3887C345.52 21.0306 347.779 24.2806 350.659 28.1387C351.863 26.3194 352.474 24.1841 352.412 22.0161C352.463 21.3808 352.398 20.7417 352.22 20.129C352.091 19.8913 351.742 19.7725 351.172 19.7725H349.44H349.055V18.4306H358.292V19.6258H357.886C357.045 19.6128 356.205 19.6973 355.384 19.8774C355.241 19.9752 355.17 20.4994 355.17 21.4499C354.812 24.2946 353.539 26.9534 351.535 29.0403L352.54 30.0887L353.31 30.8854C353.765 31.4832 354.39 31.9356 355.106 32.1854L357.757 32.3951H358.035V33.5903H350.637ZM347.836 30.5919C344.543 26.3863 341.502 21.9967 338.728 17.4451C337.489 18.0585 336.451 19.0011 335.733 20.1653C335.015 21.3295 334.645 22.6684 334.665 24.029C334.633 25.091 334.814 26.1489 335.2 27.142C335.585 28.1351 336.166 29.0438 336.91 29.8161C337.627 30.5718 338.498 31.1701 339.467 31.5713C340.437 31.9724 341.482 32.1675 342.534 32.1435C344.417 32.137 346.258 31.5982 347.836 30.5919ZM342.448 16.1032C343.589 15.3727 344.518 14.365 345.143 13.1781C345.769 11.9913 346.071 10.6657 346.019 9.3306C346.019 6.68866 345 5.36769 342.961 5.36769C340.923 5.36769 339.868 6.68167 339.797 9.30963C339.97 11.2676 340.631 13.1539 341.721 14.8032L342.448 16.1032Z" fill="white"/>
</g>
<path d="M57.4646 43.1464C56.9122 42.0978 56.2417 41.1127 55.4656 40.2093C54.3028 38.8824 52.9354 37.7405 51.4126 36.8246C50.3142 36.1281 49.1542 35.5287 47.9466 35.0337C46.3752 34.4101 44.7565 33.9072 43.105 33.5294L41.6379 33.2249L42.078 33.1354L42.7199 32.9921C44.1846 32.6804 45.6248 32.2674 47.0296 31.7564H47.1396C47.9647 31.4655 48.7728 31.1307 49.5604 30.7535C50.9855 30.0774 52.3218 29.2356 53.54 28.2463C54.6745 27.3074 55.6738 26.223 56.5109 25.0227C57.091 24.1932 57.5768 23.3045 57.9597 22.3722C58.4 21.2953 58.7078 20.1711 58.8767 19.0233C58.9721 18.3767 59.0212 17.7245 59.0234 17.0712C59.0166 16.2838 58.9368 15.4986 58.785 14.7252C58.545 13.4697 58.0991 12.2602 57.4646 11.1434C56.9336 10.168 56.2739 9.26487 55.5023 8.45712C54.5538 7.51277 53.4582 6.72096 52.2562 6.11107C50.8438 5.37325 49.3002 4.90524 47.7081 4.7321C47.205 4.63832 46.6968 4.57255 46.186 4.5351C45.0302 4.54001 43.8791 4.67827 42.7566 4.94701C41.6945 5.18963 40.6662 5.55642 39.694 6.03944C38.614 6.57808 37.5991 7.23282 36.668 7.99149C35.3027 9.12564 34.127 10.461 33.1836 11.9493C32.4703 13.022 31.8566 14.1548 31.3497 15.3341C30.7154 16.8806 30.2064 18.4734 29.8275 20.0978C29.7175 20.5754 29.6074 21.0589 29.4974 21.5484C29.2476 20.3399 28.9355 19.1444 28.5621 17.9667C28.287 17.0712 27.9569 16.1758 27.6085 15.3699C27.1455 14.2664 26.5936 13.2004 25.958 12.1821C25.6091 11.5996 25.2168 11.0429 24.7843 10.5166C24.02 9.58564 23.1664 8.7281 22.2351 7.95567C21.3112 7.25031 20.3084 6.64951 19.2458 6.1648C18.0681 5.52479 16.8018 5.0543 15.4863 4.76792C14.6084 4.61602 13.7187 4.53813 12.8271 4.5351C10.2543 4.52235 7.73696 5.26484 5.60153 6.66625C4.41267 7.41206 3.37449 8.36516 2.53889 9.47792C2.03479 10.1388 1.59866 10.8467 1.23681 11.5912C0.766069 12.5899 0.427148 13.643 0.228171 14.7252C-0.0760569 16.3413 -0.0760569 17.9981 0.228171 19.6143C0.426759 20.7665 0.784571 21.8871 1.29183 22.9453C1.60423 23.6113 1.9595 24.2573 2.3555 24.8794L2.4472 25.0227C2.74063 25.4346 3.0524 25.8465 3.3825 26.2763C4.57568 27.7037 6.01566 28.9159 7.63718 29.8581C8.74354 30.5629 9.91648 31.1626 11.1399 31.6489C12.2953 32.0967 13.2856 32.419 14.2393 32.6877C15.1929 32.9563 16.3299 33.2249 17.4119 33.4398C16.1744 33.6838 14.9502 33.9887 13.7441 34.3532C12.8271 34.6218 11.9102 34.9442 11.0849 35.2844C9.95503 35.7369 8.86351 36.2758 7.82056 36.8962C7.2241 37.237 6.65405 37.6201 6.11503 38.0424C5.16145 38.7884 4.28327 39.622 3.49253 40.5317C2.76969 41.4336 2.15442 42.4129 1.65862 43.4508C1.02318 44.5511 0.547897 45.7325 0.2465 46.9609C0.0910401 47.8183 0.0112825 48.687 0.0080963 49.5577C-0.0103808 52.0683 0.743507 54.5264 2.17211 56.6137C2.95247 57.7373 3.93407 58.714 5.0697 59.4971C5.74648 59.9893 6.47133 60.4152 7.23371 60.7686C8.23326 61.2224 9.28665 61.5533 10.3697 61.7535C12.0308 62.0512 13.7335 62.0512 15.3946 61.7535C16.5743 61.5588 17.7217 61.2094 18.8057 60.7148C19.4877 60.4097 20.1492 60.0628 20.7863 59.6761L20.933 59.5866C21.3548 59.3001 21.7766 58.9956 22.2168 58.6733C23.6765 57.5132 24.9178 56.1132 25.8846 54.5363C26.6065 53.456 27.2206 52.3106 27.7185 51.1158C28.177 49.9875 28.5071 49.0204 28.7822 48.1071C29.0573 47.1937 29.3323 46.0834 29.5524 45.0447L29.6624 45.4745L29.7908 46.0834C30.1158 47.5143 30.5448 48.9207 31.0746 50.292V50.3994C31.3727 51.1992 31.7156 51.9824 32.1016 52.7455C32.7947 54.1312 33.6568 55.43 34.669 56.6137C35.6305 57.7216 36.7409 58.6975 37.9701 59.515C38.8206 60.0747 39.7306 60.5431 40.6843 60.9118C41.7873 61.3412 42.9384 61.6417 44.1137 61.8073C44.788 61.9016 45.4682 61.9495 46.1493 61.9505C46.9735 61.9533 47.7962 61.8814 48.6068 61.7356C49.8913 61.5066 51.1297 61.0773 52.2746 60.4641C54.5041 59.3431 56.3141 57.5631 57.4462 55.378C58.203 53.9992 58.6824 52.4916 58.8583 50.9367C59.0503 49.2949 58.9384 47.6328 58.5282 46.0297C58.2895 45.0315 57.9326 44.0639 57.4646 43.1464ZM30.4327 26.1868C30.6635 24.2376 31.025 22.3053 31.5147 20.4023C31.8842 18.875 32.3747 17.3781 32.9818 15.9251C33.4242 14.836 33.9643 13.7873 34.5957 12.791C35.4501 11.4443 36.5143 10.2358 37.75 9.20929C38.5834 8.51526 39.4938 7.91456 40.4642 7.41841C41.3196 6.99114 42.2248 6.66642 43.16 6.45134C44.1522 6.22824 45.1679 6.12004 46.186 6.12898C46.6563 6.10152 47.1278 6.10152 47.5981 6.12898C48.9908 6.2779 50.3415 6.68516 51.5777 7.32887C52.6295 7.85878 53.5889 8.54783 54.4203 9.37047C55.098 10.0817 55.6775 10.8764 56.1441 11.7344C56.6743 12.7508 57.0276 13.8463 57.1895 14.9759C57.3241 15.6726 57.3917 16.3801 57.3912 17.0891C57.3928 17.6883 57.3499 18.2869 57.2628 18.88C57.109 19.8993 56.832 20.8972 56.4376 21.8529C56.1029 22.6712 55.6786 23.4517 55.1722 24.181C54.4168 25.2608 53.5162 26.2366 52.4947 27.0822C51.3708 27.9874 50.1393 28.7571 48.8268 29.3745C48.0927 29.7244 47.3397 30.0353 46.5711 30.3058H46.4611C45.1282 30.7937 43.7616 31.1887 42.3715 31.4878L41.7663 31.6131L41.1794 31.7385L40.5926 31.8818C40.2625 31.8818 37.86 32.3474 37.0715 32.419C36.5946 32.419 30.341 32.419 30.341 32.419C30.341 32.419 30.341 28.2642 30.341 27.1897C30.3777 26.8673 30.396 26.527 30.4327 26.1868ZM11.7268 30.0192C10.6023 29.5948 9.52152 29.0671 8.4991 28.4433C7.03851 27.5882 5.74153 26.4913 4.66623 25.2018C4.35447 24.8078 4.06105 24.3959 3.76762 24.0019L3.67592 23.8586C3.41917 23.5184 2.81398 22.3006 2.75896 22.0678C2.32053 21.1393 2.01211 20.1575 1.84201 19.1486C1.57324 17.7219 1.57324 16.2593 1.84201 14.8326C2.02014 13.905 2.31585 13.0026 2.72229 12.1463C3.04774 11.5146 3.43464 10.9149 3.87765 10.3554C4.59554 9.40682 5.48417 8.59366 6.50015 7.95567C8.37209 6.75558 10.5698 6.13171 12.8088 6.1648C13.6083 6.16979 14.4059 6.24169 15.1929 6.37971C16.345 6.57654 17.4627 6.9323 18.5123 7.43632C19.4671 7.88969 20.3654 8.44851 21.1898 9.10183C22.0407 9.80987 22.8205 10.5954 23.5188 11.4479C23.8981 11.918 24.2414 12.4149 24.5458 12.9343C25.112 13.8686 25.6025 14.8446 26.013 15.8534C26.3431 16.6414 26.6548 17.4652 26.9116 18.3248C27.3398 19.6821 27.6828 21.0637 27.9386 22.4618C28.2237 24.0385 28.4257 25.6285 28.5438 27.2255V32.4548H23.2621C22.2168 32.4548 21.1714 32.3116 20.1261 32.1683C18.2672 31.9195 16.4287 31.5425 14.6244 31.0401C13.7808 30.8431 12.8455 30.4491 11.7268 30.0192ZM28.232 42.43C27.9783 44.2455 27.5922 46.0409 27.0766 47.8026C26.8199 48.6802 26.4898 49.5935 26.0496 50.668C25.6143 51.7601 25.0739 52.8095 24.4358 53.8021C23.5547 55.2298 22.4252 56.4965 21.0981 57.545C20.6946 57.8494 20.2728 58.136 19.8694 58.4225L19.7226 58.5121C19.3742 58.7628 18.1271 59.3359 17.8887 59.4075C16.938 59.8357 15.9325 60.1368 14.8995 60.3029C13.4383 60.5638 11.9409 60.5638 10.4797 60.3029C9.52381 60.1293 8.59363 59.8406 7.71052 59.4433C7.06376 59.1252 6.44966 58.7474 5.87661 58.3151C4.90492 57.6143 4.07217 56.7465 3.41917 55.7541C2.18816 53.927 1.54911 51.7803 1.58526 49.5935C1.58992 48.8127 1.66355 48.0338 1.80534 47.2654C2.00666 46.1402 2.37097 45.0488 2.88734 44.0239C3.35801 43.0966 3.93645 42.2252 4.61122 41.4271C5.3361 40.5961 6.14056 39.8345 7.01364 39.1527C7.49517 38.7824 8.00393 38.4472 8.53579 38.1498C9.5088 37.5767 10.5267 37.0796 11.5801 36.6634C12.387 36.341 13.2306 36.0545 14.1109 35.7859C15.501 35.3684 16.9157 35.0335 18.3472 34.783C19.9558 34.4602 21.5861 34.2507 23.2254 34.1562H28.5804V39.296C28.5517 40.3444 28.466 41.3905 28.3237 42.43H28.232ZM57.1895 50.8471C57.0347 52.201 56.6177 53.5137 55.9608 54.7154C55.4125 55.7438 54.7007 56.6807 53.8517 57.4913C53.1226 58.1471 52.3088 58.707 51.431 59.1568C50.424 59.6958 49.3338 60.0708 48.2033 60.2671C47.4898 60.3981 46.7653 60.4641 46.0393 60.4641C45.4257 60.4652 44.8128 60.4233 44.2054 60.3388C43.1554 60.1894 42.1274 59.9189 41.1427 59.5329C40.2986 59.2068 39.4931 58.7925 38.7403 58.2972C37.6344 57.5597 36.6351 56.6802 35.7694 55.6825C34.8422 54.5852 34.054 53.3826 33.422 52.1007C33.064 51.3837 32.7457 50.6483 32.4683 49.898V49.7905C31.9682 48.4891 31.5637 47.1545 31.258 45.7969L31.1296 45.2059L31.0012 44.6328L30.8545 44.0597C30.5158 42.4787 30.3073 40.8737 30.231 39.2602C30.231 38.7945 30.231 34.0845 30.231 34.0845C30.231 34.0845 36.668 34.0845 36.9981 34.0845C38.9074 34.2806 40.8007 34.6037 42.6649 35.0516C44.2344 35.4064 45.7734 35.8794 47.268 36.4664C48.3829 36.899 49.4568 37.4264 50.4773 38.0424C51.8552 38.8713 53.0925 39.9044 54.1452 41.1048C54.8559 41.9186 55.471 42.8077 55.9791 43.7553C56.4156 44.5848 56.7481 45.4627 56.9694 46.3699C57.3621 47.8295 57.4741 49.3476 57.2995 50.8471H57.1895Z" fill="white" fill-opacity="0.6"/>
<path d="M29.0827 22.5391C28.8722 22.5359 28.6702 22.4599 28.5144 22.3252C28.3586 22.1906 28.2598 22.0066 28.2364 21.8077L26.4284 5.35006C26.4304 5.1475 26.5109 4.95276 26.6545 4.80313C26.7982 4.6535 26.9948 4.5595 27.2068 4.53912C27.4188 4.51874 27.6313 4.57341 27.8035 4.69268C27.9757 4.81194 28.0956 4.98741 28.1402 5.18548L29.9483 21.6431C29.9698 21.8586 29.9011 22.0736 29.7571 22.2413C29.6131 22.409 29.4053 22.516 29.1789 22.5391H29.0827Z" fill="white" fill-opacity="0.6"/>
<path d="M29.8445 22.5354C29.618 22.5123 29.4103 22.4054 29.2663 22.2377C29.1222 22.07 29.0536 21.8551 29.0751 21.6396L30.8831 5.18535C30.9278 4.98731 31.0477 4.81188 31.2199 4.69264C31.3921 4.57341 31.6046 4.51874 31.8166 4.53912C32.0286 4.5595 32.2252 4.65348 32.3688 4.80308C32.5125 4.95268 32.593 5.14737 32.595 5.34989L30.787 21.8041C30.7627 22.0194 30.6501 22.2168 30.4737 22.3537C30.2973 22.4906 30.0712 22.5559 29.8445 22.5354Z" fill="white" fill-opacity="0.6"/>
<defs>
<clipPath id="clip0">
<rect width="511.018" height="65" fill="white" transform="translate(86.9819)"/>
</clipPath>
</defs>
</svg>
