<svg width="193" height="193" viewBox="0 0 193 193" fill="none" xmlns="http://www.w3.org/2000/svg">
<path d="M46.946 0H41.7297V5.21622H46.946V0Z" fill="black"/>
<path d="M52.1622 0H46.9459V5.21622H52.1622V0Z" fill="black"/>
<path d="M57.3784 0H52.1622V5.21622H57.3784V0Z" fill="black"/>
<path d="M67.8108 0H62.5946V5.21622H67.8108V0Z" fill="black"/>
<path d="M88.6757 0H83.4595V5.21622H88.6757V0Z" fill="black"/>
<path d="M93.8919 0H88.6757V5.21622H93.8919V0Z" fill="black"/>
<path d="M99.1081 0H93.8919V5.21622H99.1081V0Z" fill="black"/>
<path d="M104.324 0H99.1081V5.21622H104.324V0Z" fill="black"/>
<path d="M109.541 0H104.324V5.21622H109.541V0Z" fill="black"/>
<path d="M114.757 0H109.541V5.21622H114.757V0Z" fill="black"/>
<path d="M119.973 0H114.757V5.21622H119.973V0Z" fill="black"/>
<path d="M135.622 0H130.405V5.21622H135.622V0Z" fill="black"/>
<path d="M140.838 0H135.622V5.21622H140.838V0Z" fill="black"/>
<path d="M46.946 5.21631H41.7297V10.4325H46.946V5.21631Z" fill="black"/>
<path d="M52.1622 5.21631H46.9459V10.4325H52.1622V5.21631Z" fill="black"/>
<path d="M57.3784 5.21631H52.1622V10.4325H57.3784V5.21631Z" fill="black"/>
<path d="M62.5946 5.21631H57.3784V10.4325H62.5946V5.21631Z" fill="black"/>
<path d="M73.027 5.21631H67.8108V10.4325H73.027V5.21631Z" fill="black"/>
<path d="M88.6757 5.21631H83.4595V10.4325H88.6757V5.21631Z" fill="black"/>
<path d="M93.8919 5.21631H88.6757V10.4325H93.8919V5.21631Z" fill="black"/>
<path d="M104.324 5.21631H99.1081V10.4325H104.324V5.21631Z" fill="black"/>
<path d="M135.622 5.21631H130.405V10.4325H135.622V5.21631Z" fill="black"/>
<path d="M46.946 10.4324H41.7297V15.6486H46.946V10.4324Z" fill="black"/>
<path d="M57.3784 10.4324H52.1622V15.6486H57.3784V10.4324Z" fill="black"/>
<path d="M67.8108 10.4324H62.5946V15.6486H67.8108V10.4324Z" fill="black"/>
<path d="M78.2433 10.4324H73.027V15.6486H78.2433V10.4324Z" fill="black"/>
<path d="M83.4595 10.4324H78.2433V15.6486H83.4595V10.4324Z" fill="black"/>
<path d="M99.1081 10.4324H93.8919V15.6486H99.1081V10.4324Z" fill="black"/>
<path d="M109.541 10.4324H104.324V15.6486H109.541V10.4324Z" fill="black"/>
<path d="M114.757 10.4324H109.541V15.6486H114.757V10.4324Z" fill="black"/>
<path d="M135.622 10.4324H130.405V15.6486H135.622V10.4324Z" fill="black"/>
<path d="M140.838 10.4324H135.622V15.6486H140.838V10.4324Z" fill="black"/>
<path d="M146.054 10.4324H140.838V15.6486H146.054V10.4324Z" fill="black"/>
<path d="M57.3784 15.6487H52.1622V20.8649H57.3784V15.6487Z" fill="black"/>
<path d="M62.5946 15.6487H57.3784V20.8649H62.5946V15.6487Z" fill="black"/>
<path d="M78.2433 15.6487H73.027V20.8649H78.2433V15.6487Z" fill="black"/>
<path d="M83.4595 15.6487H78.2433V20.8649H83.4595V15.6487Z" fill="black"/>
<path d="M93.8919 15.6487H88.6757V20.8649H93.8919V15.6487Z" fill="black"/>
<path d="M104.324 15.6487H99.1081V20.8649H104.324V15.6487Z" fill="black"/>
<path d="M109.541 15.6487H104.324V20.8649H109.541V15.6487Z" fill="black"/>
<path d="M114.757 15.6487H109.541V20.8649H114.757V15.6487Z" fill="black"/>
<path d="M130.405 15.6487H125.189V20.8649H130.405V15.6487Z" fill="black"/>
<path d="M135.622 15.6487H130.405V20.8649H135.622V15.6487Z" fill="black"/>
<path d="M140.838 15.6487H135.622V20.8649H140.838V15.6487Z" fill="black"/>
<path d="M146.054 15.6487H140.838V20.8649H146.054V15.6487Z" fill="black"/>
<path d="M46.946 20.8647H41.7297V26.081H46.946V20.8647Z" fill="black"/>
<path d="M52.1622 20.8647H46.9459V26.081H52.1622V20.8647Z" fill="black"/>
<path d="M67.8108 20.8647H62.5946V26.081H67.8108V20.8647Z" fill="black"/>
<path d="M99.1081 20.8647H93.8919V26.081H99.1081V20.8647Z" fill="black"/>
<path d="M104.324 20.8647H99.1081V26.081H104.324V20.8647Z" fill="black"/>
<path d="M114.757 20.8647H109.541V26.081H114.757V20.8647Z" fill="black"/>
<path d="M119.973 20.8647H114.757V26.081H119.973V20.8647Z" fill="black"/>
<path d="M140.838 20.8647H135.622V26.081H140.838V20.8647Z" fill="black"/>
<path d="M151.27 20.8647H146.054V26.081H151.27V20.8647Z" fill="black"/>
<path d="M62.5946 26.0811H57.3784V31.2973H62.5946V26.0811Z" fill="black"/>
<path d="M73.027 26.0811H67.8108V31.2973H73.027V26.0811Z" fill="black"/>
<path d="M78.2433 26.0811H73.027V31.2973H78.2433V26.0811Z" fill="black"/>
<path d="M109.541 26.0811H104.324V31.2973H109.541V26.0811Z" fill="black"/>
<path d="M125.189 26.0811H119.973V31.2973H125.189V26.0811Z" fill="black"/>
<path d="M130.405 26.0811H125.189V31.2973H130.405V26.0811Z" fill="black"/>
<path d="M151.27 26.0811H146.054V31.2973H151.27V26.0811Z" fill="black"/>
<path d="M46.946 31.2974H41.7297V36.5136H46.946V31.2974Z" fill="black"/>
<path d="M57.3784 31.2974H52.1622V36.5136H57.3784V31.2974Z" fill="black"/>
<path d="M67.8108 31.2974H62.5946V36.5136H67.8108V31.2974Z" fill="black"/>
<path d="M78.2433 31.2974H73.027V36.5136H78.2433V31.2974Z" fill="black"/>
<path d="M88.6757 31.2974H83.4595V36.5136H88.6757V31.2974Z" fill="black"/>
<path d="M99.1081 31.2974H93.8919V36.5136H99.1081V31.2974Z" fill="black"/>
<path d="M109.541 31.2974H104.324V36.5136H109.541V31.2974Z" fill="black"/>
<path d="M119.973 31.2974H114.757V36.5136H119.973V31.2974Z" fill="black"/>
<path d="M130.405 31.2974H125.189V36.5136H130.405V31.2974Z" fill="black"/>
<path d="M140.838 31.2974H135.622V36.5136H140.838V31.2974Z" fill="black"/>
<path d="M151.27 31.2974H146.054V36.5136H151.27V31.2974Z" fill="black"/>
<path d="M52.1622 36.5134H46.9459V41.7296H52.1622V36.5134Z" fill="black"/>
<path d="M57.3784 36.5134H52.1622V41.7296H57.3784V36.5134Z" fill="black"/>
<path d="M62.5946 36.5134H57.3784V41.7296H62.5946V36.5134Z" fill="black"/>
<path d="M83.4595 36.5134H78.2433V41.7296H83.4595V36.5134Z" fill="black"/>
<path d="M93.8919 36.5134H88.6757V41.7296H93.8919V36.5134Z" fill="black"/>
<path d="M99.1081 36.5134H93.8919V41.7296H99.1081V36.5134Z" fill="black"/>
<path d="M135.622 36.5134H130.405V41.7296H135.622V36.5134Z" fill="black"/>
<path d="M146.054 36.5134H140.838V41.7296H146.054V36.5134Z" fill="black"/>
<path d="M5.21622 41.7297H0V46.946H5.21622V41.7297Z" fill="black"/>
<path d="M20.8649 41.7297H15.6486V46.946H20.8649V41.7297Z" fill="black"/>
<path d="M26.0811 41.7297H20.8649V46.946H26.0811V41.7297Z" fill="black"/>
<path d="M31.2973 41.7297H26.0811V46.946H31.2973V41.7297Z" fill="black"/>
<path d="M36.5135 41.7297H31.2973V46.946H36.5135V41.7297Z" fill="black"/>
<path d="M41.7297 41.7297H36.5135V46.946H41.7297V41.7297Z" fill="black"/>
<path d="M46.946 41.7297H41.7297V46.946H46.946V41.7297Z" fill="black"/>
<path d="M57.3784 41.7297H52.1622V46.946H57.3784V41.7297Z" fill="black"/>
<path d="M67.8108 41.7297H62.5946V46.946H67.8108V41.7297Z" fill="black"/>
<path d="M78.2433 41.7297H73.027V46.946H78.2433V41.7297Z" fill="black"/>
<path d="M83.4595 41.7297H78.2433V46.946H83.4595V41.7297Z" fill="black"/>
<path d="M140.838 41.7297H135.622V46.946H140.838V41.7297Z" fill="black"/>
<path d="M146.054 41.7297H140.838V46.946H146.054V41.7297Z" fill="black"/>
<path d="M151.27 41.7297H146.054V46.946H151.27V41.7297Z" fill="black"/>
<path d="M156.487 41.7297H151.27V46.946H156.487V41.7297Z" fill="black"/>
<path d="M172.135 41.7297H166.919V46.946H172.135V41.7297Z" fill="black"/>
<path d="M182.568 41.7297H177.351V46.946H182.568V41.7297Z" fill="black"/>
<path d="M187.784 41.7297H182.568V46.946H187.784V41.7297Z" fill="black"/>
<path d="M193 41.7297H187.784V46.946H193V41.7297Z" fill="black"/>
<path d="M5.21622 46.9458H0V52.162H5.21622V46.9458Z" fill="black"/>
<path d="M10.4324 46.9458H5.21622V52.162H10.4324V46.9458Z" fill="black"/>
<path d="M15.6486 46.9458H10.4324V52.162H15.6486V46.9458Z" fill="black"/>
<path d="M20.8649 46.9458H15.6486V52.162H20.8649V46.9458Z" fill="black"/>
<path d="M26.0811 46.9458H20.8649V52.162H26.0811V46.9458Z" fill="black"/>
<path d="M46.946 46.9458H41.7297V52.162H46.946V46.9458Z" fill="black"/>
<path d="M52.1622 46.9458H46.9459V52.162H52.1622V46.9458Z" fill="black"/>
<path d="M57.3784 46.9458H52.1622V52.162H57.3784V46.9458Z" fill="black"/>
<path d="M62.5946 46.9458H57.3784V52.162H62.5946V46.9458Z" fill="black"/>
<path d="M67.8108 46.9458H62.5946V52.162H67.8108V46.9458Z" fill="black"/>
<path d="M73.027 46.9458H67.8108V52.162H73.027V46.9458Z" fill="black"/>
<path d="M78.2433 46.9458H73.027V52.162H78.2433V46.9458Z" fill="black"/>
<path d="M88.6757 46.9458H83.4595V52.162H88.6757V46.9458Z" fill="black"/>
<path d="M93.8919 46.9458H88.6757V52.162H93.8919V46.9458Z" fill="black"/>
<path d="M99.1081 46.9458H93.8919V52.162H99.1081V46.9458Z" fill="black"/>
<path d="M104.324 46.9458H99.1081V52.162H104.324V46.9458Z" fill="black"/>
<path d="M109.541 46.9458H104.324V52.162H109.541V46.9458Z" fill="black"/>
<path d="M119.973 46.9458H114.757V52.162H119.973V46.9458Z" fill="black"/>
<path d="M125.189 46.9458H119.973V52.162H125.189V46.9458Z" fill="black"/>
<path d="M130.405 46.9458H125.189V52.162H130.405V46.9458Z" fill="black"/>
<path d="M135.622 46.9458H130.405V52.162H135.622V46.9458Z" fill="black"/>
<path d="M140.838 46.9458H135.622V52.162H140.838V46.9458Z" fill="black"/>
<path d="M146.054 46.9458H140.838V52.162H146.054V46.9458Z" fill="black"/>
<path d="M166.919 46.9458H161.703V52.162H166.919V46.9458Z" fill="black"/>
<path d="M172.135 46.9458H166.919V52.162H172.135V46.9458Z" fill="black"/>
<path d="M187.784 46.9458H182.568V52.162H187.784V46.9458Z" fill="black"/>
<path d="M10.4324 52.1621H5.21622V57.3783H10.4324V52.1621Z" fill="black"/>
<path d="M20.8649 52.1621H15.6486V57.3783H20.8649V52.1621Z" fill="black"/>
<path d="M26.0811 52.1621H20.8649V57.3783H26.0811V52.1621Z" fill="black"/>
<path d="M36.5135 52.1621H31.2973V57.3783H36.5135V52.1621Z" fill="black"/>
<path d="M52.1622 52.1621H46.9459V57.3783H52.1622V52.1621Z" fill="black"/>
<path d="M57.3784 52.1621H52.1622V57.3783H57.3784V52.1621Z" fill="black"/>
<path d="M73.027 52.1621H67.8108V57.3783H73.027V52.1621Z" fill="black"/>
<path d="M78.2433 52.1621H73.027V57.3783H78.2433V52.1621Z" fill="black"/>
<path d="M83.4595 52.1621H78.2433V57.3783H83.4595V52.1621Z" fill="black"/>
<path d="M88.6757 52.1621H83.4595V57.3783H88.6757V52.1621Z" fill="black"/>
<path d="M93.8919 52.1621H88.6757V57.3783H93.8919V52.1621Z" fill="black"/>
<path d="M114.757 52.1621H109.541V57.3783H114.757V52.1621Z" fill="black"/>
<path d="M119.973 52.1621H114.757V57.3783H119.973V52.1621Z" fill="black"/>
<path d="M125.189 52.1621H119.973V57.3783H125.189V52.1621Z" fill="black"/>
<path d="M135.622 52.1621H130.405V57.3783H135.622V52.1621Z" fill="black"/>
<path d="M146.054 52.1621H140.838V57.3783H146.054V52.1621Z" fill="black"/>
<path d="M156.487 52.1621H151.27V57.3783H156.487V52.1621Z" fill="black"/>
<path d="M161.703 52.1621H156.486V57.3783H161.703V52.1621Z" fill="black"/>
<path d="M166.919 52.1621H161.703V57.3783H166.919V52.1621Z" fill="black"/>
<path d="M193 52.1621H187.784V57.3783H193V52.1621Z" fill="black"/>
<path d="M20.8649 57.3784H15.6486V62.5946H20.8649V57.3784Z" fill="black"/>
<path d="M26.0811 57.3784H20.8649V62.5946H26.0811V57.3784Z" fill="black"/>
<path d="M41.7297 57.3784H36.5135V62.5946H41.7297V57.3784Z" fill="black"/>
<path d="M46.946 57.3784H41.7297V62.5946H46.946V57.3784Z" fill="black"/>
<path d="M57.3784 57.3784H52.1622V62.5946H57.3784V57.3784Z" fill="black"/>
<path d="M62.5946 57.3784H57.3784V62.5946H62.5946V57.3784Z" fill="black"/>
<path d="M78.2433 57.3784H73.027V62.5946H78.2433V57.3784Z" fill="black"/>
<path d="M88.6757 57.3784H83.4595V62.5946H88.6757V57.3784Z" fill="black"/>
<path d="M93.8919 57.3784H88.6757V62.5946H93.8919V57.3784Z" fill="black"/>
<path d="M99.1081 57.3784H93.8919V62.5946H99.1081V57.3784Z" fill="black"/>
<path d="M104.324 57.3784H99.1081V62.5946H104.324V57.3784Z" fill="black"/>
<path d="M119.973 57.3784H114.757V62.5946H119.973V57.3784Z" fill="black"/>
<path d="M140.838 57.3784H135.622V62.5946H140.838V57.3784Z" fill="black"/>
<path d="M146.054 57.3784H140.838V62.5946H146.054V57.3784Z" fill="black"/>
<path d="M151.27 57.3784H146.054V62.5946H151.27V57.3784Z" fill="black"/>
<path d="M161.703 57.3784H156.486V62.5946H161.703V57.3784Z" fill="black"/>
<path d="M182.568 57.3784H177.351V62.5946H182.568V57.3784Z" fill="black"/>
<path d="M187.784 57.3784H182.568V62.5946H187.784V57.3784Z" fill="black"/>
<path d="M193 57.3784H187.784V62.5946H193V57.3784Z" fill="black"/>
<path d="M5.21622 62.5945H0V67.8107H5.21622V62.5945Z" fill="black"/>
<path d="M10.4324 62.5945H5.21622V67.8107H10.4324V62.5945Z" fill="black"/>
<path d="M15.6486 62.5945H10.4324V67.8107H15.6486V62.5945Z" fill="black"/>
<path d="M20.8649 62.5945H15.6486V67.8107H20.8649V62.5945Z" fill="black"/>
<path d="M31.2973 62.5945H26.0811V67.8107H31.2973V62.5945Z" fill="black"/>
<path d="M36.5135 62.5945H31.2973V67.8107H36.5135V62.5945Z" fill="black"/>
<path d="M52.1622 62.5945H46.9459V67.8107H52.1622V62.5945Z" fill="black"/>
<path d="M57.3784 62.5945H52.1622V67.8107H57.3784V62.5945Z" fill="black"/>
<path d="M67.8108 62.5945H62.5946V67.8107H67.8108V62.5945Z" fill="black"/>
<path d="M73.027 62.5945H67.8108V67.8107H73.027V62.5945Z" fill="black"/>
<path d="M78.2433 62.5945H73.027V67.8107H78.2433V62.5945Z" fill="black"/>
<path d="M83.4595 62.5945H78.2433V67.8107H83.4595V62.5945Z" fill="black"/>
<path d="M88.6757 62.5945H83.4595V67.8107H88.6757V62.5945Z" fill="black"/>
<path d="M104.324 62.5945H99.1081V67.8107H104.324V62.5945Z" fill="black"/>
<path d="M109.541 62.5945H104.324V67.8107H109.541V62.5945Z" fill="black"/>
<path d="M125.189 62.5945H119.973V67.8107H125.189V62.5945Z" fill="black"/>
<path d="M146.054 62.5945H140.838V67.8107H146.054V62.5945Z" fill="black"/>
<path d="M161.703 62.5945H156.486V67.8107H161.703V62.5945Z" fill="black"/>
<path d="M166.919 62.5945H161.703V67.8107H166.919V62.5945Z" fill="black"/>
<path d="M177.351 62.5945H172.135V67.8107H177.351V62.5945Z" fill="black"/>
<path d="M193 62.5945H187.784V67.8107H193V62.5945Z" fill="black"/>
<path d="M15.6486 67.8108H10.4324V73.027H15.6486V67.8108Z" fill="black"/>
<path d="M20.8649 67.8108H15.6486V73.027H20.8649V67.8108Z" fill="black"/>
<path d="M26.0811 67.8108H20.8649V73.027H26.0811V67.8108Z" fill="black"/>
<path d="M31.2973 67.8108H26.0811V73.027H31.2973V67.8108Z" fill="black"/>
<path d="M41.7297 67.8108H36.5135V73.027H41.7297V67.8108Z" fill="black"/>
<path d="M46.946 67.8108H41.7297V73.027H46.946V67.8108Z" fill="black"/>
<path d="M57.3784 67.8108H52.1622V73.027H57.3784V67.8108Z" fill="black"/>
<path d="M62.5946 67.8108H57.3784V73.027H62.5946V67.8108Z" fill="black"/>
<path d="M67.8108 67.8108H62.5946V73.027H67.8108V67.8108Z" fill="black"/>
<path d="M73.027 67.8108H67.8108V73.027H73.027V67.8108Z" fill="black"/>
<path d="M83.4595 67.8108H78.2433V73.027H83.4595V67.8108Z" fill="black"/>
<path d="M88.6757 67.8108H83.4595V73.027H88.6757V67.8108Z" fill="black"/>
<path d="M99.1081 67.8108H93.8919V73.027H99.1081V67.8108Z" fill="black"/>
<path d="M109.541 67.8108H104.324V73.027H109.541V67.8108Z" fill="black"/>
<path d="M125.189 67.8108H119.973V73.027H125.189V67.8108Z" fill="black"/>
<path d="M146.054 67.8108H140.838V73.027H146.054V67.8108Z" fill="black"/>
<path d="M151.27 67.8108H146.054V73.027H151.27V67.8108Z" fill="black"/>
<path d="M172.135 67.8108H166.919V73.027H172.135V67.8108Z" fill="black"/>
<path d="M177.351 67.8108H172.135V73.027H177.351V67.8108Z" fill="black"/>
<path d="M187.784 67.8108H182.568V73.027H187.784V67.8108Z" fill="black"/>
<path d="M10.4324 73.0271H5.21622V78.2433H10.4324V73.0271Z" fill="black"/>
<path d="M26.0811 73.0271H20.8649V78.2433H26.0811V73.0271Z" fill="black"/>
<path d="M31.2973 73.0271H26.0811V78.2433H31.2973V73.0271Z" fill="black"/>
<path d="M36.5135 73.0271H31.2973V78.2433H36.5135V73.0271Z" fill="black"/>
<path d="M46.946 73.0271H41.7297V78.2433H46.946V73.0271Z" fill="black"/>
<path d="M52.1622 73.0271H46.9459V78.2433H52.1622V73.0271Z" fill="black"/>
<path d="M57.3784 73.0271H52.1622V78.2433H57.3784V73.0271Z" fill="black"/>
<path d="M78.2433 73.0271H73.027V78.2433H78.2433V73.0271Z" fill="black"/>
<path d="M83.4595 73.0271H78.2433V78.2433H83.4595V73.0271Z" fill="black"/>
<path d="M99.1081 73.0271H93.8919V78.2433H99.1081V73.0271Z" fill="black"/>
<path d="M104.324 73.0271H99.1081V78.2433H104.324V73.0271Z" fill="black"/>
<path d="M109.541 73.0271H104.324V78.2433H109.541V73.0271Z" fill="black"/>
<path d="M119.973 73.0271H114.757V78.2433H119.973V73.0271Z" fill="black"/>
<path d="M140.838 73.0271H135.622V78.2433H140.838V73.0271Z" fill="black"/>
<path d="M146.054 73.0271H140.838V78.2433H146.054V73.0271Z" fill="black"/>
<path d="M151.27 73.0271H146.054V78.2433H151.27V73.0271Z" fill="black"/>
<path d="M161.703 73.0271H156.486V78.2433H161.703V73.0271Z" fill="black"/>
<path d="M172.135 73.0271H166.919V78.2433H172.135V73.0271Z" fill="black"/>
<path d="M177.351 73.0271H172.135V78.2433H177.351V73.0271Z" fill="black"/>
<path d="M182.568 73.0271H177.351V78.2433H182.568V73.0271Z" fill="black"/>
<path d="M187.784 73.0271H182.568V78.2433H187.784V73.0271Z" fill="black"/>
<path d="M193 73.0271H187.784V78.2433H193V73.0271Z" fill="black"/>
<path d="M15.6486 78.2432H10.4324V83.4594H15.6486V78.2432Z" fill="black"/>
<path d="M20.8649 78.2432H15.6486V83.4594H20.8649V78.2432Z" fill="black"/>
<path d="M26.0811 78.2432H20.8649V83.4594H26.0811V78.2432Z" fill="black"/>
<path d="M31.2973 78.2432H26.0811V83.4594H31.2973V78.2432Z" fill="black"/>
<path d="M41.7297 78.2432H36.5135V83.4594H41.7297V78.2432Z" fill="black"/>
<path d="M57.3784 78.2432H52.1622V83.4594H57.3784V78.2432Z" fill="black"/>
<path d="M78.2433 78.2432H73.027V83.4594H78.2433V78.2432Z" fill="black"/>
<path d="M109.541 78.2432H104.324V83.4594H109.541V78.2432Z" fill="black"/>
<path d="M119.973 78.2432H114.757V83.4594H119.973V78.2432Z" fill="black"/>
<path d="M125.189 78.2432H119.973V83.4594H125.189V78.2432Z" fill="black"/>
<path d="M130.405 78.2432H125.189V83.4594H130.405V78.2432Z" fill="black"/>
<path d="M140.838 78.2432H135.622V83.4594H140.838V78.2432Z" fill="black"/>
<path d="M146.054 78.2432H140.838V83.4594H146.054V78.2432Z" fill="black"/>
<path d="M156.487 78.2432H151.27V83.4594H156.487V78.2432Z" fill="black"/>
<path d="M161.703 78.2432H156.486V83.4594H161.703V78.2432Z" fill="black"/>
<path d="M166.919 78.2432H161.703V83.4594H166.919V78.2432Z" fill="black"/>
<path d="M177.351 78.2432H172.135V83.4594H177.351V78.2432Z" fill="black"/>
<path d="M182.568 78.2432H177.351V83.4594H182.568V78.2432Z" fill="black"/>
<path d="M187.784 78.2432H182.568V83.4594H187.784V78.2432Z" fill="black"/>
<path d="M193 78.2432H187.784V83.4594H193V78.2432Z" fill="black"/>
<path d="M5.21622 83.4595H0V88.6757H5.21622V83.4595Z" fill="black"/>
<path d="M31.2973 83.4595H26.0811V88.6757H31.2973V83.4595Z" fill="black"/>
<path d="M36.5135 83.4595H31.2973V88.6757H36.5135V83.4595Z" fill="black"/>
<path d="M41.7297 83.4595H36.5135V88.6757H41.7297V83.4595Z" fill="black"/>
<path d="M52.1622 83.4595H46.9459V88.6757H52.1622V83.4595Z" fill="black"/>
<path d="M57.3784 83.4595H52.1622V88.6757H57.3784V83.4595Z" fill="black"/>
<path d="M67.8108 83.4595H62.5946V88.6757H67.8108V83.4595Z" fill="black"/>
<path d="M78.2433 83.4595H73.027V88.6757H78.2433V83.4595Z" fill="black"/>
<path d="M83.4595 83.4595H78.2433V88.6757H83.4595V83.4595Z" fill="black"/>
<path d="M93.8919 83.4595H88.6757V88.6757H93.8919V83.4595Z" fill="black"/>
<path d="M99.1081 83.4595H93.8919V88.6757H99.1081V83.4595Z" fill="black"/>
<path d="M104.324 83.4595H99.1081V88.6757H104.324V83.4595Z" fill="black"/>
<path d="M125.189 83.4595H119.973V88.6757H125.189V83.4595Z" fill="black"/>
<path d="M135.622 83.4595H130.405V88.6757H135.622V83.4595Z" fill="black"/>
<path d="M161.703 83.4595H156.486V88.6757H161.703V83.4595Z" fill="black"/>
<path d="M182.568 83.4595H177.351V88.6757H182.568V83.4595Z" fill="black"/>
<path d="M187.784 83.4595H182.568V88.6757H187.784V83.4595Z" fill="black"/>
<path d="M10.4324 88.6755H5.21622V93.8918H10.4324V88.6755Z" fill="black"/>
<path d="M26.0811 88.6755H20.8649V93.8918H26.0811V88.6755Z" fill="black"/>
<path d="M46.946 88.6755H41.7297V93.8918H46.946V88.6755Z" fill="black"/>
<path d="M62.5946 88.6755H57.3784V93.8918H62.5946V88.6755Z" fill="black"/>
<path d="M67.8108 88.6755H62.5946V93.8918H67.8108V88.6755Z" fill="black"/>
<path d="M78.2433 88.6755H73.027V93.8918H78.2433V88.6755Z" fill="black"/>
<path d="M93.8919 88.6755H88.6757V93.8918H93.8919V88.6755Z" fill="black"/>
<path d="M104.324 88.6755H99.1081V93.8918H104.324V88.6755Z" fill="black"/>
<path d="M130.405 88.6755H125.189V93.8918H130.405V88.6755Z" fill="black"/>
<path d="M146.054 88.6755H140.838V93.8918H146.054V88.6755Z" fill="black"/>
<path d="M166.919 88.6755H161.703V93.8918H166.919V88.6755Z" fill="black"/>
<path d="M177.351 88.6755H172.135V93.8918H177.351V88.6755Z" fill="black"/>
<path d="M10.4324 93.8918H5.21622V99.1081H10.4324V93.8918Z" fill="black"/>
<path d="M26.0811 93.8918H20.8649V99.1081H26.0811V93.8918Z" fill="black"/>
<path d="M36.5135 93.8918H31.2973V99.1081H36.5135V93.8918Z" fill="black"/>
<path d="M57.3784 93.8918H52.1622V99.1081H57.3784V93.8918Z" fill="black"/>
<path d="M78.2433 93.8918H73.027V99.1081H78.2433V93.8918Z" fill="black"/>
<path d="M88.6757 93.8918H83.4595V99.1081H88.6757V93.8918Z" fill="black"/>
<path d="M93.8919 93.8918H88.6757V99.1081H93.8919V93.8918Z" fill="black"/>
<path d="M99.1081 93.8918H93.8919V99.1081H99.1081V93.8918Z" fill="black"/>
<path d="M104.324 93.8918H99.1081V99.1081H104.324V93.8918Z" fill="black"/>
<path d="M109.541 93.8918H104.324V99.1081H109.541V93.8918Z" fill="black"/>
<path d="M114.757 93.8918H109.541V99.1081H114.757V93.8918Z" fill="black"/>
<path d="M125.189 93.8918H119.973V99.1081H125.189V93.8918Z" fill="black"/>
<path d="M130.405 93.8918H125.189V99.1081H130.405V93.8918Z" fill="black"/>
<path d="M140.838 93.8918H135.622V99.1081H140.838V93.8918Z" fill="black"/>
<path d="M146.054 93.8918H140.838V99.1081H146.054V93.8918Z" fill="black"/>
<path d="M156.487 93.8918H151.27V99.1081H156.487V93.8918Z" fill="black"/>
<path d="M161.703 93.8918H156.486V99.1081H161.703V93.8918Z" fill="black"/>
<path d="M172.135 93.8918H166.919V99.1081H172.135V93.8918Z" fill="black"/>
<path d="M182.568 93.8918H177.351V99.1081H182.568V93.8918Z" fill="black"/>
<path d="M193 93.8918H187.784V99.1081H193V93.8918Z" fill="black"/>
<path d="M5.21622 99.1082H0V104.324H5.21622V99.1082Z" fill="black"/>
<path d="M20.8649 99.1082H15.6486V104.324H20.8649V99.1082Z" fill="black"/>
<path d="M26.0811 99.1082H20.8649V104.324H26.0811V99.1082Z" fill="black"/>
<path d="M31.2973 99.1082H26.0811V104.324H31.2973V99.1082Z" fill="black"/>
<path d="M46.946 99.1082H41.7297V104.324H46.946V99.1082Z" fill="black"/>
<path d="M62.5946 99.1082H57.3784V104.324H62.5946V99.1082Z" fill="black"/>
<path d="M67.8108 99.1082H62.5946V104.324H67.8108V99.1082Z" fill="black"/>
<path d="M73.027 99.1082H67.8108V104.324H73.027V99.1082Z" fill="black"/>
<path d="M78.2433 99.1082H73.027V104.324H78.2433V99.1082Z" fill="black"/>
<path d="M83.4595 99.1082H78.2433V104.324H83.4595V99.1082Z" fill="black"/>
<path d="M88.6757 99.1082H83.4595V104.324H88.6757V99.1082Z" fill="black"/>
<path d="M104.324 99.1082H99.1081V104.324H104.324V99.1082Z" fill="black"/>
<path d="M119.973 99.1082H114.757V104.324H119.973V99.1082Z" fill="black"/>
<path d="M130.405 99.1082H125.189V104.324H130.405V99.1082Z" fill="black"/>
<path d="M135.622 99.1082H130.405V104.324H135.622V99.1082Z" fill="black"/>
<path d="M140.838 99.1082H135.622V104.324H140.838V99.1082Z" fill="black"/>
<path d="M151.27 99.1082H146.054V104.324H151.27V99.1082Z" fill="black"/>
<path d="M156.487 99.1082H151.27V104.324H156.487V99.1082Z" fill="black"/>
<path d="M161.703 99.1082H156.486V104.324H161.703V99.1082Z" fill="black"/>
<path d="M177.351 99.1082H172.135V104.324H177.351V99.1082Z" fill="black"/>
<path d="M193 99.1082H187.784V104.324H193V99.1082Z" fill="black"/>
<path d="M5.21622 104.324H0V109.541H5.21622V104.324Z" fill="black"/>
<path d="M10.4324 104.324H5.21622V109.541H10.4324V104.324Z" fill="black"/>
<path d="M20.8649 104.324H15.6486V109.541H20.8649V104.324Z" fill="black"/>
<path d="M36.5135 104.324H31.2973V109.541H36.5135V104.324Z" fill="black"/>
<path d="M41.7297 104.324H36.5135V109.541H41.7297V104.324Z" fill="black"/>
<path d="M52.1622 104.324H46.9459V109.541H52.1622V104.324Z" fill="black"/>
<path d="M57.3784 104.324H52.1622V109.541H57.3784V104.324Z" fill="black"/>
<path d="M93.8919 104.324H88.6757V109.541H93.8919V104.324Z" fill="black"/>
<path d="M104.324 104.324H99.1081V109.541H104.324V104.324Z" fill="black"/>
<path d="M109.541 104.324H104.324V109.541H109.541V104.324Z" fill="black"/>
<path d="M119.973 104.324H114.757V109.541H119.973V104.324Z" fill="black"/>
<path d="M125.189 104.324H119.973V109.541H125.189V104.324Z" fill="black"/>
<path d="M140.838 104.324H135.622V109.541H140.838V104.324Z" fill="black"/>
<path d="M151.27 104.324H146.054V109.541H151.27V104.324Z" fill="black"/>
<path d="M156.487 104.324H151.27V109.541H156.487V104.324Z" fill="black"/>
<path d="M161.703 104.324H156.486V109.541H161.703V104.324Z" fill="black"/>
<path d="M166.919 104.324H161.703V109.541H166.919V104.324Z" fill="black"/>
<path d="M172.135 104.324H166.919V109.541H172.135V104.324Z" fill="black"/>
<path d="M177.351 104.324H172.135V109.541H177.351V104.324Z" fill="black"/>
<path d="M20.8649 109.541H15.6486V114.757H20.8649V109.541Z" fill="black"/>
<path d="M31.2973 109.541H26.0811V114.757H31.2973V109.541Z" fill="black"/>
<path d="M41.7297 109.541H36.5135V114.757H41.7297V109.541Z" fill="black"/>
<path d="M52.1622 109.541H46.9459V114.757H52.1622V109.541Z" fill="black"/>
<path d="M62.5946 109.541H57.3784V114.757H62.5946V109.541Z" fill="black"/>
<path d="M67.8108 109.541H62.5946V114.757H67.8108V109.541Z" fill="black"/>
<path d="M83.4595 109.541H78.2433V114.757H83.4595V109.541Z" fill="black"/>
<path d="M93.8919 109.541H88.6757V114.757H93.8919V109.541Z" fill="black"/>
<path d="M104.324 109.541H99.1081V114.757H104.324V109.541Z" fill="black"/>
<path d="M114.757 109.541H109.541V114.757H114.757V109.541Z" fill="black"/>
<path d="M119.973 109.541H114.757V114.757H119.973V109.541Z" fill="black"/>
<path d="M125.189 109.541H119.973V114.757H125.189V109.541Z" fill="black"/>
<path d="M140.838 109.541H135.622V114.757H140.838V109.541Z" fill="black"/>
<path d="M146.054 109.541H140.838V114.757H146.054V109.541Z" fill="black"/>
<path d="M151.27 109.541H146.054V114.757H151.27V109.541Z" fill="black"/>
<path d="M172.135 109.541H166.919V114.757H172.135V109.541Z" fill="black"/>
<path d="M182.568 109.541H177.351V114.757H182.568V109.541Z" fill="black"/>
<path d="M187.784 109.541H182.568V114.757H187.784V109.541Z" fill="black"/>
<path d="M20.8649 114.757H15.6486V119.973H20.8649V114.757Z" fill="black"/>
<path d="M36.5135 114.757H31.2973V119.973H36.5135V114.757Z" fill="black"/>
<path d="M41.7297 114.757H36.5135V119.973H41.7297V114.757Z" fill="black"/>
<path d="M57.3784 114.757H52.1622V119.973H57.3784V114.757Z" fill="black"/>
<path d="M78.2433 114.757H73.027V119.973H78.2433V114.757Z" fill="black"/>
<path d="M83.4595 114.757H78.2433V119.973H83.4595V114.757Z" fill="black"/>
<path d="M109.541 114.757H104.324V119.973H109.541V114.757Z" fill="black"/>
<path d="M114.757 114.757H109.541V119.973H114.757V114.757Z" fill="black"/>
<path d="M125.189 114.757H119.973V119.973H125.189V114.757Z" fill="black"/>
<path d="M135.622 114.757H130.405V119.973H135.622V114.757Z" fill="black"/>
<path d="M140.838 114.757H135.622V119.973H140.838V114.757Z" fill="black"/>
<path d="M146.054 114.757H140.838V119.973H146.054V114.757Z" fill="black"/>
<path d="M156.487 114.757H151.27V119.973H156.487V114.757Z" fill="black"/>
<path d="M161.703 114.757H156.486V119.973H161.703V114.757Z" fill="black"/>
<path d="M166.919 114.757H161.703V119.973H166.919V114.757Z" fill="black"/>
<path d="M177.351 114.757H172.135V119.973H177.351V114.757Z" fill="black"/>
<path d="M193 114.757H187.784V119.973H193V114.757Z" fill="black"/>
<path d="M5.21622 119.973H0V125.189H5.21622V119.973Z" fill="black"/>
<path d="M10.4324 119.973H5.21622V125.189H10.4324V119.973Z" fill="black"/>
<path d="M41.7297 119.973H36.5135V125.189H41.7297V119.973Z" fill="black"/>
<path d="M67.8108 119.973H62.5946V125.189H67.8108V119.973Z" fill="black"/>
<path d="M73.027 119.973H67.8108V125.189H73.027V119.973Z" fill="black"/>
<path d="M99.1081 119.973H93.8919V125.189H99.1081V119.973Z" fill="black"/>
<path d="M109.541 119.973H104.324V125.189H109.541V119.973Z" fill="black"/>
<path d="M125.189 119.973H119.973V125.189H125.189V119.973Z" fill="black"/>
<path d="M140.838 119.973H135.622V125.189H140.838V119.973Z" fill="black"/>
<path d="M151.27 119.973H146.054V125.189H151.27V119.973Z" fill="black"/>
<path d="M156.487 119.973H151.27V125.189H156.487V119.973Z" fill="black"/>
<path d="M166.919 119.973H161.703V125.189H166.919V119.973Z" fill="black"/>
<path d="M172.135 119.973H166.919V125.189H172.135V119.973Z" fill="black"/>
<path d="M177.351 119.973H172.135V125.189H177.351V119.973Z" fill="black"/>
<path d="M182.568 119.973H177.351V125.189H182.568V119.973Z" fill="black"/>
<path d="M187.784 119.973H182.568V125.189H187.784V119.973Z" fill="black"/>
<path d="M5.21622 125.189H0V130.405H5.21622V125.189Z" fill="black"/>
<path d="M10.4324 125.189H5.21622V130.405H10.4324V125.189Z" fill="black"/>
<path d="M15.6486 125.189H10.4324V130.405H15.6486V125.189Z" fill="black"/>
<path d="M20.8649 125.189H15.6486V130.405H20.8649V125.189Z" fill="black"/>
<path d="M31.2973 125.189H26.0811V130.405H31.2973V125.189Z" fill="black"/>
<path d="M36.5135 125.189H31.2973V130.405H36.5135V125.189Z" fill="black"/>
<path d="M46.946 125.189H41.7297V130.405H46.946V125.189Z" fill="black"/>
<path d="M52.1622 125.189H46.9459V130.405H52.1622V125.189Z" fill="black"/>
<path d="M57.3784 125.189H52.1622V130.405H57.3784V125.189Z" fill="black"/>
<path d="M62.5946 125.189H57.3784V130.405H62.5946V125.189Z" fill="black"/>
<path d="M67.8108 125.189H62.5946V130.405H67.8108V125.189Z" fill="black"/>
<path d="M78.2433 125.189H73.027V130.405H78.2433V125.189Z" fill="black"/>
<path d="M93.8919 125.189H88.6757V130.405H93.8919V125.189Z" fill="black"/>
<path d="M104.324 125.189H99.1081V130.405H104.324V125.189Z" fill="black"/>
<path d="M109.541 125.189H104.324V130.405H109.541V125.189Z" fill="black"/>
<path d="M119.973 125.189H114.757V130.405H119.973V125.189Z" fill="black"/>
<path d="M125.189 125.189H119.973V130.405H125.189V125.189Z" fill="black"/>
<path d="M140.838 125.189H135.622V130.405H140.838V125.189Z" fill="black"/>
<path d="M146.054 125.189H140.838V130.405H146.054V125.189Z" fill="black"/>
<path d="M151.27 125.189H146.054V130.405H151.27V125.189Z" fill="black"/>
<path d="M161.703 125.189H156.486V130.405H161.703V125.189Z" fill="black"/>
<path d="M166.919 125.189H161.703V130.405H166.919V125.189Z" fill="black"/>
<path d="M5.21622 130.405H0V135.621H5.21622V130.405Z" fill="black"/>
<path d="M20.8649 130.405H15.6486V135.621H20.8649V130.405Z" fill="black"/>
<path d="M26.0811 130.405H20.8649V135.621H26.0811V130.405Z" fill="black"/>
<path d="M31.2973 130.405H26.0811V135.621H31.2973V130.405Z" fill="black"/>
<path d="M41.7297 130.405H36.5135V135.621H41.7297V130.405Z" fill="black"/>
<path d="M46.946 130.405H41.7297V135.621H46.946V130.405Z" fill="black"/>
<path d="M62.5946 130.405H57.3784V135.621H62.5946V130.405Z" fill="black"/>
<path d="M73.027 130.405H67.8108V135.621H73.027V130.405Z" fill="black"/>
<path d="M99.1081 130.405H93.8919V135.621H99.1081V130.405Z" fill="black"/>
<path d="M114.757 130.405H109.541V135.621H114.757V130.405Z" fill="black"/>
<path d="M119.973 130.405H114.757V135.621H119.973V130.405Z" fill="black"/>
<path d="M125.189 130.405H119.973V135.621H125.189V130.405Z" fill="black"/>
<path d="M130.405 130.405H125.189V135.621H130.405V130.405Z" fill="black"/>
<path d="M135.622 130.405H130.405V135.621H135.622V130.405Z" fill="black"/>
<path d="M140.838 130.405H135.622V135.621H140.838V130.405Z" fill="black"/>
<path d="M146.054 130.405H140.838V135.621H146.054V130.405Z" fill="black"/>
<path d="M156.487 130.405H151.27V135.621H156.487V130.405Z" fill="black"/>
<path d="M166.919 130.405H161.703V135.621H166.919V130.405Z" fill="black"/>
<path d="M172.135 130.405H166.919V135.621H172.135V130.405Z" fill="black"/>
<path d="M177.351 130.405H172.135V135.621H177.351V130.405Z" fill="black"/>
<path d="M5.21622 135.622H0V140.838H5.21622V135.622Z" fill="black"/>
<path d="M10.4324 135.622H5.21622V140.838H10.4324V135.622Z" fill="black"/>
<path d="M15.6486 135.622H10.4324V140.838H15.6486V135.622Z" fill="black"/>
<path d="M36.5135 135.622H31.2973V140.838H36.5135V135.622Z" fill="black"/>
<path d="M46.946 135.622H41.7297V140.838H46.946V135.622Z" fill="black"/>
<path d="M52.1622 135.622H46.9459V140.838H52.1622V135.622Z" fill="black"/>
<path d="M57.3784 135.622H52.1622V140.838H57.3784V135.622Z" fill="black"/>
<path d="M62.5946 135.622H57.3784V140.838H62.5946V135.622Z" fill="black"/>
<path d="M67.8108 135.622H62.5946V140.838H67.8108V135.622Z" fill="black"/>
<path d="M83.4595 135.622H78.2433V140.838H83.4595V135.622Z" fill="black"/>
<path d="M104.324 135.622H99.1081V140.838H104.324V135.622Z" fill="black"/>
<path d="M135.622 135.622H130.405V140.838H135.622V135.622Z" fill="black"/>
<path d="M140.838 135.622H135.622V140.838H140.838V135.622Z" fill="black"/>
<path d="M146.054 135.622H140.838V140.838H146.054V135.622Z" fill="black"/>
<path d="M156.487 135.622H151.27V140.838H156.487V135.622Z" fill="black"/>
<path d="M177.351 135.622H172.135V140.838H177.351V135.622Z" fill="black"/>
<path d="M182.568 135.622H177.351V140.838H182.568V135.622Z" fill="black"/>
<path d="M187.784 135.622H182.568V140.838H187.784V135.622Z" fill="black"/>
<path d="M193 135.622H187.784V140.838H193V135.622Z" fill="black"/>
<path d="M5.21622 140.838H0V146.054H5.21622V140.838Z" fill="black"/>
<path d="M15.6486 140.838H10.4324V146.054H15.6486V140.838Z" fill="black"/>
<path d="M20.8649 140.838H15.6486V146.054H20.8649V140.838Z" fill="black"/>
<path d="M26.0811 140.838H20.8649V146.054H26.0811V140.838Z" fill="black"/>
<path d="M31.2973 140.838H26.0811V146.054H31.2973V140.838Z" fill="black"/>
<path d="M52.1622 140.838H46.9459V146.054H52.1622V140.838Z" fill="black"/>
<path d="M57.3784 140.838H52.1622V146.054H57.3784V140.838Z" fill="black"/>
<path d="M62.5946 140.838H57.3784V146.054H62.5946V140.838Z" fill="black"/>
<path d="M78.2433 140.838H73.027V146.054H78.2433V140.838Z" fill="black"/>
<path d="M88.6757 140.838H83.4595V146.054H88.6757V140.838Z" fill="black"/>
<path d="M99.1081 140.838H93.8919V146.054H99.1081V140.838Z" fill="black"/>
<path d="M166.919 140.838H161.703V146.054H166.919V140.838Z" fill="black"/>
<path d="M177.351 140.838H172.135V146.054H177.351V140.838Z" fill="black"/>
<path d="M182.568 140.838H177.351V146.054H182.568V140.838Z" fill="black"/>
<path d="M193 140.838H187.784V146.054H193V140.838Z" fill="black"/>
<path d="M5.21622 146.054H0V151.27H5.21622V146.054Z" fill="black"/>
<path d="M26.0811 146.054H20.8649V151.27H26.0811V146.054Z" fill="black"/>
<path d="M36.5135 146.054H31.2973V151.27H36.5135V146.054Z" fill="black"/>
<path d="M52.1622 146.054H46.9459V151.27H52.1622V146.054Z" fill="black"/>
<path d="M73.027 146.054H67.8108V151.27H73.027V146.054Z" fill="black"/>
<path d="M78.2433 146.054H73.027V151.27H78.2433V146.054Z" fill="black"/>
<path d="M83.4595 146.054H78.2433V151.27H83.4595V146.054Z" fill="black"/>
<path d="M99.1081 146.054H93.8919V151.27H99.1081V146.054Z" fill="black"/>
<path d="M119.973 146.054H114.757V151.27H119.973V146.054Z" fill="black"/>
<path d="M125.189 146.054H119.973V151.27H125.189V146.054Z" fill="black"/>
<path d="M130.405 146.054H125.189V151.27H130.405V146.054Z" fill="black"/>
<path d="M135.622 146.054H130.405V151.27H135.622V146.054Z" fill="black"/>
<path d="M146.054 146.054H140.838V151.27H146.054V146.054Z" fill="black"/>
<path d="M151.27 146.054H146.054V151.27H151.27V146.054Z" fill="black"/>
<path d="M156.487 146.054H151.27V151.27H156.487V146.054Z" fill="black"/>
<path d="M161.703 146.054H156.486V151.27H161.703V146.054Z" fill="black"/>
<path d="M166.919 146.054H161.703V151.27H166.919V146.054Z" fill="black"/>
<path d="M172.135 146.054H166.919V151.27H172.135V146.054Z" fill="black"/>
<path d="M177.351 146.054H172.135V151.27H177.351V146.054Z" fill="black"/>
<path d="M182.568 146.054H177.351V151.27H182.568V146.054Z" fill="black"/>
<path d="M46.946 151.27H41.7297V156.486H46.946V151.27Z" fill="black"/>
<path d="M62.5946 151.27H57.3784V156.486H62.5946V151.27Z" fill="black"/>
<path d="M73.027 151.27H67.8108V156.486H73.027V151.27Z" fill="black"/>
<path d="M78.2433 151.27H73.027V156.486H78.2433V151.27Z" fill="black"/>
<path d="M83.4595 151.27H78.2433V156.486H83.4595V151.27Z" fill="black"/>
<path d="M93.8919 151.27H88.6757V156.486H93.8919V151.27Z" fill="black"/>
<path d="M99.1081 151.27H93.8919V156.486H99.1081V151.27Z" fill="black"/>
<path d="M104.324 151.27H99.1081V156.486H104.324V151.27Z" fill="black"/>
<path d="M109.541 151.27H104.324V156.486H109.541V151.27Z" fill="black"/>
<path d="M119.973 151.27H114.757V156.486H119.973V151.27Z" fill="black"/>
<path d="M135.622 151.27H130.405V156.486H135.622V151.27Z" fill="black"/>
<path d="M146.054 151.27H140.838V156.486H146.054V151.27Z" fill="black"/>
<path d="M151.27 151.27H146.054V156.486H151.27V151.27Z" fill="black"/>
<path d="M172.135 151.27H166.919V156.486H172.135V151.27Z" fill="black"/>
<path d="M182.568 151.27H177.351V156.486H182.568V151.27Z" fill="black"/>
<path d="M187.784 151.27H182.568V156.486H187.784V151.27Z" fill="black"/>
<path d="M46.946 156.487H41.7297V161.703H46.946V156.487Z" fill="black"/>
<path d="M67.8108 156.487H62.5946V161.703H67.8108V156.487Z" fill="black"/>
<path d="M78.2433 156.487H73.027V161.703H78.2433V156.487Z" fill="black"/>
<path d="M83.4595 156.487H78.2433V161.703H83.4595V156.487Z" fill="black"/>
<path d="M93.8919 156.487H88.6757V161.703H93.8919V156.487Z" fill="black"/>
<path d="M99.1081 156.487H93.8919V161.703H99.1081V156.487Z" fill="black"/>
<path d="M104.324 156.487H99.1081V161.703H104.324V156.487Z" fill="black"/>
<path d="M125.189 156.487H119.973V161.703H125.189V156.487Z" fill="black"/>
<path d="M130.405 156.487H125.189V161.703H130.405V156.487Z" fill="black"/>
<path d="M135.622 156.487H130.405V161.703H135.622V156.487Z" fill="black"/>
<path d="M151.27 156.487H146.054V161.703H151.27V156.487Z" fill="black"/>
<path d="M161.703 156.487H156.486V161.703H161.703V156.487Z" fill="black"/>
<path d="M172.135 156.487H166.919V161.703H172.135V156.487Z" fill="black"/>
<path d="M193 156.487H187.784V161.703H193V156.487Z" fill="black"/>
<path d="M46.946 161.703H41.7297V166.919H46.946V161.703Z" fill="black"/>
<path d="M57.3784 161.703H52.1622V166.919H57.3784V161.703Z" fill="black"/>
<path d="M67.8108 161.703H62.5946V166.919H67.8108V161.703Z" fill="black"/>
<path d="M83.4595 161.703H78.2433V166.919H83.4595V161.703Z" fill="black"/>
<path d="M104.324 161.703H99.1081V166.919H104.324V161.703Z" fill="black"/>
<path d="M109.541 161.703H104.324V166.919H109.541V161.703Z" fill="black"/>
<path d="M119.973 161.703H114.757V166.919H119.973V161.703Z" fill="black"/>
<path d="M135.622 161.703H130.405V166.919H135.622V161.703Z" fill="black"/>
<path d="M146.054 161.703H140.838V166.919H146.054V161.703Z" fill="black"/>
<path d="M151.27 161.703H146.054V166.919H151.27V161.703Z" fill="black"/>
<path d="M172.135 161.703H166.919V166.919H172.135V161.703Z" fill="black"/>
<path d="M46.946 166.919H41.7297V172.135H46.946V166.919Z" fill="black"/>
<path d="M52.1622 166.919H46.9459V172.135H52.1622V166.919Z" fill="black"/>
<path d="M57.3784 166.919H52.1622V172.135H57.3784V166.919Z" fill="black"/>
<path d="M67.8108 166.919H62.5946V172.135H67.8108V166.919Z" fill="black"/>
<path d="M73.027 166.919H67.8108V172.135H73.027V166.919Z" fill="black"/>
<path d="M78.2433 166.919H73.027V172.135H78.2433V166.919Z" fill="black"/>
<path d="M88.6757 166.919H83.4595V172.135H88.6757V166.919Z" fill="black"/>
<path d="M99.1081 166.919H93.8919V172.135H99.1081V166.919Z" fill="black"/>
<path d="M109.541 166.919H104.324V172.135H109.541V166.919Z" fill="black"/>
<path d="M119.973 166.919H114.757V172.135H119.973V166.919Z" fill="black"/>
<path d="M125.189 166.919H119.973V172.135H125.189V166.919Z" fill="black"/>
<path d="M130.405 166.919H125.189V172.135H130.405V166.919Z" fill="black"/>
<path d="M146.054 166.919H140.838V172.135H146.054V166.919Z" fill="black"/>
<path d="M151.27 166.919H146.054V172.135H151.27V166.919Z" fill="black"/>
<path d="M156.487 166.919H151.27V172.135H156.487V166.919Z" fill="black"/>
<path d="M161.703 166.919H156.486V172.135H161.703V166.919Z" fill="black"/>
<path d="M166.919 166.919H161.703V172.135H166.919V166.919Z" fill="black"/>
<path d="M172.135 166.919H166.919V172.135H172.135V166.919Z" fill="black"/>
<path d="M193 166.919H187.784V172.135H193V166.919Z" fill="black"/>
<path d="M46.946 172.135H41.7297V177.351H46.946V172.135Z" fill="black"/>
<path d="M52.1622 172.135H46.9459V177.351H52.1622V172.135Z" fill="black"/>
<path d="M57.3784 172.135H52.1622V177.351H57.3784V172.135Z" fill="black"/>
<path d="M62.5946 172.135H57.3784V177.351H62.5946V172.135Z" fill="black"/>
<path d="M73.027 172.135H67.8108V177.351H73.027V172.135Z" fill="black"/>
<path d="M78.2433 172.135H73.027V177.351H78.2433V172.135Z" fill="black"/>
<path d="M93.8919 172.135H88.6757V177.351H93.8919V172.135Z" fill="black"/>
<path d="M104.324 172.135H99.1081V177.351H104.324V172.135Z" fill="black"/>
<path d="M109.541 172.135H104.324V177.351H109.541V172.135Z" fill="black"/>
<path d="M125.189 172.135H119.973V177.351H125.189V172.135Z" fill="black"/>
<path d="M151.27 172.135H146.054V177.351H151.27V172.135Z" fill="black"/>
<path d="M156.487 172.135H151.27V177.351H156.487V172.135Z" fill="black"/>
<path d="M161.703 172.135H156.486V177.351H161.703V172.135Z" fill="black"/>
<path d="M177.351 172.135H172.135V177.351H177.351V172.135Z" fill="black"/>
<path d="M193 172.135H187.784V177.351H193V172.135Z" fill="black"/>
<path d="M52.1622 177.351H46.9459V182.568H52.1622V177.351Z" fill="black"/>
<path d="M67.8108 177.351H62.5946V182.568H67.8108V177.351Z" fill="black"/>
<path d="M78.2433 177.351H73.027V182.568H78.2433V177.351Z" fill="black"/>
<path d="M109.541 177.351H104.324V182.568H109.541V177.351Z" fill="black"/>
<path d="M125.189 177.351H119.973V182.568H125.189V177.351Z" fill="black"/>
<path d="M140.838 177.351H135.622V182.568H140.838V177.351Z" fill="black"/>
<path d="M156.487 177.351H151.27V182.568H156.487V177.351Z" fill="black"/>
<path d="M172.135 177.351H166.919V182.568H172.135V177.351Z" fill="black"/>
<path d="M182.568 177.351H177.351V182.568H182.568V177.351Z" fill="black"/>
<path d="M193 177.351H187.784V182.568H193V177.351Z" fill="black"/>
<path d="M62.5946 182.568H57.3784V187.784H62.5946V182.568Z" fill="black"/>
<path d="M67.8108 182.568H62.5946V187.784H67.8108V182.568Z" fill="black"/>
<path d="M83.4595 182.568H78.2433V187.784H83.4595V182.568Z" fill="black"/>
<path d="M93.8919 182.568H88.6757V187.784H93.8919V182.568Z" fill="black"/>
<path d="M109.541 182.568H104.324V187.784H109.541V182.568Z" fill="black"/>
<path d="M125.189 182.568H119.973V187.784H125.189V182.568Z" fill="black"/>
<path d="M140.838 182.568H135.622V187.784H140.838V182.568Z" fill="black"/>
<path d="M156.487 182.568H151.27V187.784H156.487V182.568Z" fill="black"/>
<path d="M161.703 182.568H156.486V187.784H161.703V182.568Z" fill="black"/>
<path d="M172.135 182.568H166.919V187.784H172.135V182.568Z" fill="black"/>
<path d="M177.351 182.568H172.135V187.784H177.351V182.568Z" fill="black"/>
<path d="M182.568 182.568H177.351V187.784H182.568V182.568Z" fill="black"/>
<path d="M187.784 182.568H182.568V187.784H187.784V182.568Z" fill="black"/>
<path d="M193 182.568H187.784V187.784H193V182.568Z" fill="black"/>
<path d="M46.946 187.784H41.7297V193H46.946V187.784Z" fill="black"/>
<path d="M62.5946 187.784H57.3784V193H62.5946V187.784Z" fill="black"/>
<path d="M73.027 187.784H67.8108V193H73.027V187.784Z" fill="black"/>
<path d="M88.6757 187.784H83.4595V193H88.6757V187.784Z" fill="black"/>
<path d="M104.324 187.784H99.1081V193H104.324V187.784Z" fill="black"/>
<path d="M109.541 187.784H104.324V193H109.541V187.784Z" fill="black"/>
<path d="M125.189 187.784H119.973V193H125.189V187.784Z" fill="black"/>
<path d="M130.405 187.784H125.189V193H130.405V187.784Z" fill="black"/>
<path d="M151.27 187.784H146.054V193H151.27V187.784Z" fill="black"/>
<path d="M156.487 187.784H151.27V193H156.487V187.784Z" fill="black"/>
<path d="M166.919 187.784H161.703V193H166.919V187.784Z" fill="black"/>
<path d="M177.351 187.784H172.135V193H177.351V187.784Z" fill="black"/>
<path d="M193 187.784H187.784V193H193V187.784Z" fill="black"/>
<path d="M31.0365 0H5.47703H0V5.47703V31.0365V36.5135H5.47703H31.0365H36.5135V31.0365V5.47703V0H31.0365ZM31.0365 31.0365H5.47703V5.47703H31.0365V31.0365Z" fill="black"/>
<path d="M187.523 0H161.964H156.486V5.47703V31.0365V36.5135H161.964H187.523H193V31.0365V5.47703V0H187.523ZM187.523 31.0365H161.964V5.47703H187.523V31.0365Z" fill="black"/>
<path d="M31.0365 156.487H5.47703H0V161.964V187.523V193H5.47703H31.0365H36.5135V187.523V161.964V156.487H31.0365ZM31.0365 187.523H5.47703V161.964H31.0365V187.523Z" fill="black"/>
<path d="M26.0811 10.4324H10.4324V26.081H26.0811V10.4324Z" fill="black"/>
<path d="M182.568 10.4324H166.919V26.081H182.568V10.4324Z" fill="black"/>
<path d="M26.0811 166.919H10.4324V182.568H26.0811V166.919Z" fill="black"/>
</svg>
